<svg width="179" height="84" viewBox="0 0 179 84" fill="none" xmlns="http://www.w3.org/2000/svg">
<path d="M50.6279 52.588V14.5765H63.0603C67.0683 14.5765 70.5589 15.384 73.532 16.999C76.5032 18.614 78.8053 20.8503 80.4364 23.708C82.0675 26.5656 82.8821 29.8483 82.8821 33.556C82.8821 37.2636 82.0675 40.5544 80.4364 43.4282C78.8053 46.3041 76.5052 48.5485 73.532 50.1635C70.5589 51.7785 67.0683 52.586 63.0603 52.586H50.6279V52.588ZM57.6071 46.4639H63.2118C65.7929 46.4639 68.0263 45.9276 69.9121 44.857C71.7979 43.7864 73.2652 42.2888 74.3203 40.3682C75.3733 38.4475 75.8988 36.1768 75.8988 33.556C75.8988 30.9371 75.3713 28.6664 74.3203 26.7437C73.2673 24.8231 71.7979 23.3336 69.9121 22.2792C68.0263 21.2248 65.7929 20.6986 63.2118 20.6986H57.6071V46.4639Z" fill="white"/>
<path d="M100.969 53.1993C98.1155 53.1993 95.6112 52.5537 93.4546 51.2604C91.298 49.9692 89.6245 48.2166 88.436 46.0045C87.2476 43.7945 86.6533 41.3457 86.6533 38.658C86.6533 35.8692 87.2657 33.3941 88.4886 31.2346C89.7114 29.0752 91.3586 27.3651 93.4304 26.1063C95.5021 24.8474 97.8467 24.218 100.462 24.218C102.635 24.218 104.547 24.5742 106.194 25.2886C107.841 26.003 109.242 26.9907 110.398 28.2475C111.552 29.5063 112.436 30.9432 113.048 32.5582C113.658 34.1732 113.966 35.9178 113.966 37.7878C113.966 38.2978 113.939 38.7997 113.889 39.2935C113.838 39.7873 113.743 40.2366 113.608 40.6454H92.2055V35.4928H109.834L106.625 37.891C106.964 36.3266 106.906 34.9322 106.447 33.7078C105.988 32.4833 105.24 31.5139 104.205 30.7995C103.168 30.0851 101.919 29.7289 100.46 29.7289C99.0675 29.7289 97.8265 30.0851 96.7411 30.7995C95.6537 31.5139 94.831 32.5339 94.2692 33.8616C93.7093 35.1872 93.4971 36.8042 93.6325 38.7086C93.4971 40.4107 93.7255 41.9144 94.3197 43.2238C94.9139 44.5332 95.7972 45.5451 96.9695 46.2595C98.1418 46.974 99.4919 47.3302 101.02 47.3302C102.548 47.3302 103.848 47.0063 104.919 46.3607C105.988 45.7151 106.829 44.8469 107.441 43.7581L112.842 46.4113C112.298 47.7369 111.449 48.9108 110.295 49.9308C109.139 50.9508 107.765 51.7502 106.168 52.329C104.569 52.9099 102.837 53.1993 100.969 53.1993Z" fill="white"/>
<path d="M127.362 52.588L116.458 24.8333H123.744L131.643 46.6704H128.943L136.892 24.8333H144.179L133.274 52.588H127.362Z" fill="white"/>
<path d="M52.5685 76.9367V59.9608H47.3154V56.2046H62.0459V59.9608H56.8757V76.9367H52.5685Z" fill="white"/>
<path d="M68.5763 77.2706C67.4828 77.2706 66.5369 77.0946 65.7405 76.7424C64.9442 76.3903 64.3318 75.8843 63.9053 75.2266C63.4788 74.5688 63.2666 73.7836 63.2666 72.8749C63.2666 72.0208 63.4606 71.2659 63.8507 70.6062C64.2408 69.9484 64.8371 69.3959 65.6435 68.9507C66.45 68.5054 67.4545 68.1897 68.6591 68.0056L73.2998 67.2547V70.3147L69.411 71.0109C68.8168 71.1223 68.364 71.3125 68.0487 71.5817C67.7334 71.8508 67.5758 72.2354 67.5758 72.7373C67.5758 73.2007 67.7516 73.563 68.1033 73.822C68.455 74.0831 68.8916 74.2126 69.409 74.2126C70.0942 74.2126 70.6965 74.0649 71.2159 73.7674C71.7354 73.4699 72.1376 73.0671 72.4246 72.5571C72.7116 72.0471 72.8551 71.4865 72.8551 70.8733V66.9208C72.8551 66.346 72.6287 65.8643 72.174 65.4737C71.7192 65.0852 71.1048 64.8889 70.3266 64.8889C69.5848 64.8889 68.932 65.0933 68.3681 65.5021C67.8021 65.9109 67.3898 66.4472 67.1311 67.1171L63.7962 65.5304C64.0933 64.6764 64.5642 63.9437 65.213 63.3325C65.8618 62.7193 66.64 62.2478 67.5475 61.9138C68.455 61.5799 69.4474 61.4139 70.5206 61.4139C71.8001 61.4139 72.9299 61.6467 73.9122 62.1101C74.8945 62.5736 75.6585 63.2192 76.2042 64.0449C76.7499 64.8706 77.0248 65.8299 77.0248 66.9248V76.9428H73.134V74.494L74.08 74.326C73.6353 74.9938 73.1441 75.5463 72.6065 75.9815C72.0689 76.4186 71.4666 76.7424 70.7996 76.9549C70.1326 77.1654 69.3908 77.2706 68.5763 77.2706Z" fill="white"/>
<path d="M80.083 76.9367V55.8707H84.2527V76.9367H80.083Z" fill="white"/>
<path d="M94.6173 77.2707C93.0043 77.2707 91.6057 76.9145 90.4213 76.2001C89.2348 75.4857 88.3172 74.5264 87.6704 73.3202C87.0216 72.114 86.6982 70.7782 86.6982 69.313C86.6982 67.7911 87.0358 66.4371 87.7129 65.2491C88.39 64.0611 89.3015 63.1241 90.4496 62.438C91.5976 61.7519 92.8952 61.4079 94.3404 61.4079C95.545 61.4079 96.6102 61.5981 97.5359 61.9786C98.4616 62.3591 99.2458 62.8934 99.8845 63.5795C100.523 64.2655 101.01 65.0589 101.344 65.9595C101.677 66.8601 101.845 67.8376 101.845 68.8961C101.845 69.1936 101.831 69.485 101.803 69.7724C101.774 70.0598 101.724 70.3067 101.649 70.5091H90.2818V67.449H99.2862L97.3135 68.8961C97.4995 68.0987 97.4894 67.3883 97.2852 66.767C97.0811 66.1457 96.7254 65.6539 96.216 65.2916C95.7067 64.9294 95.0801 64.7492 94.3404 64.7492C93.6168 64.7492 92.9963 64.9253 92.4788 65.2775C91.9594 65.6296 91.5713 66.1497 91.3106 66.8358C91.0519 67.5219 90.9488 68.3577 91.0054 69.3413C90.9306 70.1954 91.0337 70.9462 91.3106 71.5959C91.5895 72.2455 92.014 72.7515 92.59 73.1117C93.164 73.474 93.8593 73.6541 94.6739 73.6541C95.4156 73.6541 96.0503 73.5063 96.5778 73.2088C97.1053 72.9134 97.5177 72.5046 97.8148 71.9844L101.15 73.5711C100.853 74.3139 100.386 74.9635 99.747 75.5201C99.1083 76.0766 98.3524 76.5077 97.4813 76.8133C96.6102 77.1189 95.6561 77.2707 94.6173 77.2707Z" fill="white"/>
<path d="M104.291 76.9367V61.7418H108.182V64.7472L107.959 64.0794C108.311 63.1707 108.881 62.4987 109.669 62.0616C110.458 61.6265 111.379 61.4079 112.434 61.4079C113.582 61.4079 114.589 61.6487 115.45 62.1324C116.311 62.6161 116.982 63.288 117.465 64.1502C117.946 65.0123 118.189 66.0202 118.189 67.1697V76.9367H114.019V68.0602C114.019 67.4672 113.904 66.9572 113.671 66.5302C113.439 66.1032 113.116 65.7693 112.699 65.5284C112.283 65.2876 111.796 65.1662 111.24 65.1662C110.702 65.1662 110.221 65.2876 109.795 65.5284C109.368 65.7693 109.039 66.1032 108.808 66.5302C108.576 66.9572 108.461 67.4672 108.461 68.0602V76.9367H104.291Z" fill="white"/>
<path d="M128.248 77.1047C126.412 77.1047 124.991 76.6089 123.981 75.6152C122.97 74.6235 122.467 73.2352 122.467 71.4542V65.3604H119.91V61.7418H120.05C120.828 61.7418 121.426 61.5475 121.842 61.1569C122.259 60.7684 122.467 60.1835 122.467 59.4043V58.2912H126.637V61.7418H130.194V65.3604H126.637V71.1769C126.637 71.697 126.73 72.1281 126.916 72.4701C127.102 72.8142 127.389 73.0692 127.777 73.2352C128.165 73.4011 128.648 73.4861 129.222 73.4861C129.351 73.4861 129.501 73.476 129.666 73.4578C129.834 73.4396 130.01 73.4213 130.194 73.4011V76.9347C129.915 76.9711 129.6 77.0096 129.248 77.046C128.896 77.0865 128.563 77.1047 128.248 77.1047Z" fill="white"/>
<path d="M135.001 83.0608C134.556 83.0608 134.125 83.0244 133.709 82.9495C133.293 82.8746 132.927 82.7552 132.612 82.5873V79.165C132.87 79.2398 133.177 79.3046 133.529 79.3592C133.881 79.4139 134.206 79.4422 134.501 79.4422C135.316 79.4422 135.9 79.252 136.252 78.8715C136.603 78.491 136.89 78.0599 137.113 77.5783L138.141 75.2124L138.087 78.6914L131.417 61.7438H135.892L140.31 73.7937H138.643L143.061 61.7438H147.536L141.032 78.3575C140.623 79.3957 140.124 80.2679 139.532 80.9743C138.938 81.6786 138.267 82.2027 137.517 82.5468C136.765 82.8888 135.926 83.0608 135.001 83.0608Z" fill="white"/>
<path d="M148.396 80.2781L157.569 57.3198H162.072L152.9 80.2781H148.396Z" fill="white"/>
<path d="M165.795 76.8254V72.6239L175.523 68.6167V70.0638L165.795 66.0283V61.8268L178.997 67.281V71.3995L165.795 76.8254Z" fill="white"/>
<path d="M32.9077 57.2711C25.2292 56.1843 25.0291 50.5418 25.1342 44.1142C25.0857 31.4349 25.211 18.7839 25.0998 6.1026C25.0776 4.03425 24.9967 -0.610438 22.0498 0.142427C20.2692 0.972197 19.8508 3.75496 19.8508 5.6776C19.8609 18.5694 19.8245 31.4693 19.8629 44.3611C19.8831 48.7629 19.772 54.0228 22.543 57.6151C25.9245 62.7637 33.8799 61.3167 37.5059 65.6922C40.281 69.242 38.2578 74.8318 33.8192 75.8498C20.7138 78.3816 8.10566 66.6657 6.45839 53.5938C5.99554 49.9489 6.17745 46.2716 6.15319 42.6105C6.04607 39.8459 6.51498 35.9541 4.32402 34.08C2.05826 32.9001 1.15884 36.5633 1.01129 38.2876C-0.920968 59.2544 5.57917 78.0396 28.5682 81.4781C34.5327 82.32 41.2895 79.8246 43.3754 73.7754C46.3061 66.1435 40.9277 58.3882 32.9744 57.2893L32.9077 57.2711Z" fill="white"/>
<path d="M29.4475 25.4747C29.1646 29.0104 29.203 32.5824 29.3121 36.1302C29.3566 37.3688 29.4839 38.6377 30.0013 39.767C30.5471 41.1594 32.0104 41.9588 32.9401 40.4409C33.5324 39.4655 33.7446 38.2006 33.8173 37.0531C34.0599 32.9002 33.4778 28.555 34.4116 24.3859C35.1837 20.66 37.6819 17.3045 41.1361 16.3655C42.7187 15.9809 43.9415 15.4386 44.0001 13.5544C43.996 11.3585 42.6358 11.0165 40.8329 11.5063C37.3322 12.3016 34.2256 14.5116 32.1519 17.5696C30.5976 19.8121 29.686 22.6353 29.4516 25.416L29.4475 25.4747Z" fill="white"/>
<path d="M10.2285 35.5979C10.7823 46.8504 7.79292 57.9572 17.2703 66.4775C20.9428 69.7784 26.5152 72.6744 31.5378 71.7981C32.8779 71.5735 34.6586 70.6304 33.9249 69.2825C32.9062 67.5865 29.7531 66.8114 27.7966 66.0849C17.8544 62.8771 15.3117 55.0084 15.6715 45.5369C15.6655 38.1277 15.7362 30.7367 15.6129 23.3355C15.5907 21.6254 15.4835 19.8303 14.6993 18.2982C13.5048 15.8939 11.4654 16.5051 10.7519 18.7738C10.2446 20.148 10.1335 21.6355 10.1011 23.0967C10.0243 27.2253 10.0243 31.4227 10.2264 35.5331L10.2285 35.5979Z" fill="white"/>
<path d="M32.0019 49.9246C33.8998 49.9671 35.2055 47.7187 34.2697 46.0733C33.631 44.7983 31.9029 44.3186 30.6821 45.0351C28.3921 46.302 29.3178 49.9267 31.9392 49.9246H32.0019Z" fill="white"/>
</svg>
