<svg width="16" height="16" viewBox="0 0 16 16" fill="none" xmlns="http://www.w3.org/2000/svg">
<path d="M1.3335 2.00002H2.82016C2.97067 1.99487 3.11849 2.04082 3.23955 2.13041C3.3606 2.21999 3.44776 2.34792 3.48683 2.49336L5.40016 9.68002C5.47545 9.95976 5.63979 10.2074 5.86833 10.3854C6.09687 10.5634 6.37717 10.6622 6.66683 10.6667H11.0202C11.3005 10.6669 11.5738 10.5788 11.8012 10.4149C12.0286 10.2509 12.1985 10.0194 12.2868 9.75336L13.6868 5.54669C13.7203 5.44785 13.73 5.34254 13.7153 5.23923C13.7006 5.13593 13.6619 5.03752 13.6022 4.95191C13.5426 4.86631 13.4636 4.79591 13.3718 4.74637C13.28 4.69683 13.1778 4.66954 13.0735 4.66669H4.06683" stroke="white" stroke-linecap="round" stroke-linejoin="round"/>
<path d="M6.66016 13.3333H6.67349" stroke="white" stroke-width="2" stroke-linecap="round" stroke-linejoin="round"/>
<path d="M10.6602 13.3333H10.6735" stroke="white" stroke-width="2" stroke-linecap="round" stroke-linejoin="round"/>
</svg>
