<svg width="18" height="18" viewBox="0 0 18 18" fill="none" xmlns="http://www.w3.org/2000/svg">
<path d="M8.90147 15.9943C12.6804 15.9943 15.7439 12.9309 15.7439 9.15193C15.7439 5.37298 12.6804 2.30954 8.90147 2.30954C5.12252 2.30954 2.05908 5.37298 2.05908 9.15193C2.05908 12.9309 5.12252 15.9943 8.90147 15.9943Z" stroke="#1184E0" stroke-width="1.02636" stroke-linecap="round" stroke-linejoin="round"/>
<path d="M8.89404 12.5731H8.90738" stroke="#1184E0" stroke-width="1.02636" stroke-linecap="round" stroke-linejoin="round"/>
<path d="M6.84863 7.78343C6.84863 7.37744 6.96902 6.98057 7.19458 6.643C7.42013 6.30543 7.74072 6.04233 8.11581 5.88697C8.49089 5.7316 8.90363 5.69095 9.30181 5.77016C9.7 5.84936 10.0658 6.04486 10.3528 6.33194C10.6399 6.61902 10.8354 6.98478 10.9146 7.38297C10.9938 7.78115 10.9532 8.19389 10.7978 8.56897C10.6424 8.94406 10.3793 9.26465 10.0418 9.4902C9.70421 9.71576 9.30734 9.83615 8.90135 9.83615V10.5204" stroke="#1184E0" stroke-width="1.02636" stroke-linecap="round" stroke-linejoin="round"/>
</svg>
