<svg width="26" height="26" viewBox="0 0 26 26" fill="none" xmlns="http://www.w3.org/2000/svg">
<g clip-path="url(#clip0_2_3095)">
<g clip-path="url(#clip1_2_3095)">
<mask id="mask0_2_3095" style="mask-type:luminance" maskUnits="userSpaceOnUse" x="0" y="0" width="26" height="26">
<path d="M25.4588 0.43457H0.826172V25.0672H25.4588V0.43457Z" fill="white"/>
</mask>
<g mask="url(#mask0_2_3095)">
<path d="M13.1419 2.65382C16.4303 2.65382 16.8198 2.66562 18.1194 2.72464C18.9002 2.73456 19.6735 2.87828 20.4057 3.14957C20.9411 3.34595 21.4253 3.66066 21.8221 4.07023C22.2316 4.46741 22.5466 4.95146 22.744 5.48665C23.0167 6.21884 23.1601 6.99286 23.1677 7.77415C23.2267 9.07253 23.2397 9.46205 23.2397 12.7505C23.2397 16.0389 23.2267 16.4284 23.1677 17.7268C23.1601 18.5081 23.0167 19.2821 22.744 20.0143C22.539 20.5454 22.2252 21.0277 21.8227 21.4302C21.4202 21.8327 20.938 22.1465 20.4069 22.3514C19.6747 22.6227 18.9014 22.7664 18.1206 22.7763C16.8222 22.8353 16.4315 22.8471 13.1431 22.8471C9.85462 22.8471 9.46629 22.8353 8.16673 22.7763C7.38592 22.7665 6.61259 22.6228 5.8804 22.3514C5.34522 22.1546 4.86114 21.8399 4.46399 21.4307C4.05468 21.0335 3.73967 20.5494 3.54214 20.0143C3.27178 19.2815 3.12848 18.5079 3.1184 17.7268C3.05938 16.4284 3.0464 16.0389 3.0464 12.7505C3.0464 9.46205 3.05938 9.07253 3.1184 7.77415C3.1281 6.99316 3.271 6.21956 3.54096 5.48665C3.73878 4.95167 4.05375 4.46772 4.46281 4.07023C4.85996 3.66104 5.34404 3.34638 5.87922 3.14957C6.61141 2.87815 7.38474 2.73442 8.16555 2.72464C9.46393 2.66562 9.85462 2.65382 13.1419 2.65382ZM13.1419 0.433594C9.79679 0.434774 9.37894 0.448938 8.06522 0.507955C7.0435 0.529154 6.03269 0.722696 5.07541 1.08042C4.25402 1.38842 3.50964 1.87178 2.89413 2.49684C2.26692 3.1138 1.78193 3.86023 1.473 4.68401C1.11484 5.64076 0.921277 6.65126 0.900534 7.67264C0.839156 8.98637 0.826172 9.40539 0.826172 12.7505C0.826172 16.0956 0.839156 16.5146 0.900534 17.826C0.921144 18.8477 1.1147 19.8586 1.473 20.8158C1.7813 21.637 2.26462 22.3813 2.88941 22.997C3.50492 23.6221 4.2493 24.1055 5.07069 24.4135C6.02797 24.7712 7.03878 24.9647 8.0605 24.9859C9.37422 25.0449 9.79324 25.0591 13.136 25.0591C16.4787 25.0591 16.9001 25.0449 18.2115 24.9859C19.2332 24.9647 20.244 24.7712 21.2013 24.4135C22.0193 24.0969 22.7622 23.6129 23.3823 22.9926C24.0024 22.3722 24.4862 21.6292 24.8025 20.8111C25.1613 19.854 25.3552 18.8431 25.3761 17.8212C25.4352 16.5075 25.4493 16.0885 25.4493 12.7458C25.4493 9.40303 25.4352 8.98164 25.3761 7.67028C25.3575 6.65009 25.1663 5.64042 24.8108 4.68401C24.4946 3.86567 24.0109 3.1224 23.3908 2.50185C22.7706 1.8813 22.0277 1.39715 21.2095 1.08042C20.2522 0.722696 19.2414 0.529154 18.2197 0.507955C16.906 0.448938 16.4882 0.434774 13.1419 0.434774M13.1419 6.42738C11.8911 6.42738 10.6683 6.79829 9.6283 7.49321C8.58827 8.18814 7.77768 9.17585 7.29901 10.3315C6.82034 11.4871 6.69509 12.7587 6.93912 13.9855C7.18314 15.2123 7.78547 16.3391 8.66994 17.2236C9.5544 18.1081 10.6813 18.7104 11.9081 18.9544C13.1349 19.1985 14.4065 19.0732 15.5621 18.5945C16.7177 18.1159 17.7054 17.3053 18.4003 16.2652C19.0953 15.2252 19.4662 14.0025 19.4662 12.7517C19.4659 11.0745 18.7994 9.46603 17.6135 8.28007C16.4275 7.0941 14.8191 6.42769 13.1419 6.42738ZM13.1419 16.8569C12.3299 16.8569 11.5362 16.6161 10.8611 16.165C10.186 15.714 9.65985 15.0728 9.34914 14.3227C9.03842 13.5725 8.95712 12.7471 9.11553 11.9508C9.27393 11.1544 9.66491 10.423 10.239 9.84882C10.8132 9.2747 11.5447 8.88371 12.341 8.72531C13.1373 8.56691 13.9628 8.6482 14.7129 8.95892C15.463 9.26964 16.1042 9.79581 16.5553 10.4709C17.0063 11.146 17.2471 11.9397 17.2471 12.7517C17.2471 13.8404 16.8146 14.8846 16.0447 15.6545C15.2748 16.4244 14.2307 16.8569 13.1419 16.8569ZM21.1954 6.17715C21.1958 5.88474 21.1096 5.59875 20.9476 5.35533C20.7856 5.1119 20.555 4.92197 20.2851 4.80953C20.0152 4.69709 19.718 4.66719 19.431 4.72361C19.1441 4.78003 18.8804 4.92023 18.6731 5.12651C18.4659 5.33278 18.3244 5.59586 18.2666 5.8825C18.2088 6.16915 18.2373 6.46649 18.3484 6.73695C18.4596 7.00742 18.6484 7.23887 18.891 7.40205C19.1337 7.56523 19.4193 7.65282 19.7117 7.65376C20.1037 7.65376 20.4797 7.4981 20.757 7.22099C21.0344 6.94389 21.1903 6.56801 21.1906 6.17597" fill="white"/>
</g>
</g>
</g>
<defs>
<clipPath id="clip0_2_3095">
<rect width="24.6326" height="24.6326" fill="white" transform="translate(0.826172 0.43457)"/>
</clipPath>
<clipPath id="clip1_2_3095">
<rect width="24.6326" height="24.6326" fill="white" transform="translate(0.826172 0.43457)"/>
</clipPath>
</defs>
</svg>
