<svg width="16" height="16" viewBox="0 0 16 16" fill="none" xmlns="http://www.w3.org/2000/svg">
<path d="M7.78667 1.40667L2.91333 3.02667C2.64726 3.11498 2.41579 3.2849 2.25183 3.5123C2.08786 3.7397 1.99975 4.01299 2 4.29333V6.74C1.99931 7.94822 2.29715 9.13788 2.86705 10.2032C3.43695 11.2686 4.26125 12.1767 5.26667 12.8467L7.63333 14.42C7.74219 14.4917 7.86966 14.5299 8 14.5299C8.13034 14.5299 8.25782 14.4917 8.36667 14.42L10.7333 12.8467C11.7388 12.1767 12.5631 11.2686 13.133 10.2032C13.7029 9.13788 14.0007 7.94822 14 6.74V4.29333C14.0003 4.01299 13.9121 3.7397 13.7482 3.5123C13.5842 3.2849 13.3527 3.11498 13.0867 3.02667L8.21333 1.40667C8.07495 1.35993 7.92505 1.35993 7.78667 1.40667V1.40667Z" stroke="black" stroke-linecap="round" stroke-linejoin="round"/>
</svg>
