<svg width="26" height="26" viewBox="0 0 26 26" fill="none" xmlns="http://www.w3.org/2000/svg">
<g clip-path="url(#clip0_2_3096)">
<g clip-path="url(#clip1_2_3096)">
<mask id="mask0_2_3096" style="mask-type:luminance" maskUnits="userSpaceOnUse" x="0" y="2" width="26" height="21">
<path d="M25.5135 2.74146H0.880859V22.7603H25.5135V2.74146Z" fill="white"/>
</mask>
<g mask="url(#mask0_2_3096)">
<path d="M0.880859 20.4889C3.19157 21.9739 5.881 22.762 8.62771 22.7592C10.5746 22.7714 12.5034 22.3857 14.2959 21.6259C16.0883 20.8661 17.7067 19.7481 19.0518 18.3406C20.3968 16.933 21.4401 15.2655 22.1178 13.4404C22.7954 11.6152 23.0931 9.67091 22.9926 7.72662C23.9816 7.01112 24.8352 6.12514 25.5135 5.11022C24.5912 5.51866 23.613 5.78678 22.6114 5.90567C23.6672 5.27482 24.457 4.28092 24.833 3.1099C23.8409 3.69848 22.7556 4.11352 21.6239 4.33719C20.8625 3.52565 19.8547 2.98795 18.7566 2.80745C17.6586 2.62694 16.5316 2.81372 15.5505 3.33882C14.5694 3.86392 13.7889 4.69802 13.33 5.7118C12.8711 6.72559 12.7595 7.86244 13.0124 8.94612C11.003 8.84578 9.03716 8.32378 7.24266 7.41402C5.44816 6.50426 3.86517 5.2271 2.59653 3.66554C1.94982 4.77775 1.75112 6.09457 2.04087 7.34808C2.33062 8.60159 3.08704 9.69763 4.15624 10.4132C3.35346 10.3877 2.56839 10.1708 1.8664 9.78056C1.85197 10.9583 2.24895 12.1043 2.98887 13.0207C3.7288 13.9372 4.76531 14.5667 5.91968 14.8009C5.17573 15.0025 4.3956 15.0318 3.63861 14.8866C3.96124 15.8907 4.58968 16.7688 5.43602 17.398C6.28235 18.0273 7.30423 18.3762 8.35866 18.396C6.24157 20.0563 3.55227 20.809 0.880859 20.4889Z" fill="white"/>
</g>
</g>
</g>
<defs>
<clipPath id="clip0_2_3096">
<rect width="24.6326" height="24.6326" fill="white" transform="translate(0.880859 0.43457)"/>
</clipPath>
<clipPath id="clip1_2_3096">
<rect width="24.6326" height="20.0188" fill="white" transform="translate(0.880859 2.74146)"/>
</clipPath>
</defs>
</svg>
