<svg width="16" height="16" viewBox="0 0 16 16" fill="none" xmlns="http://www.w3.org/2000/svg">
<path d="M8.00016 6.66666C9.47292 6.66666 10.6668 5.47275 10.6668 3.99999C10.6668 2.52724 9.47292 1.33333 8.00016 1.33333C6.5274 1.33333 5.3335 2.52724 5.3335 3.99999C5.3335 5.47275 6.5274 6.66666 8.00016 6.66666Z" stroke="white" stroke-linecap="round" stroke-linejoin="round"/>
<path d="M11.7801 14.6667C11.9871 14.6667 12.1912 14.6185 12.3763 14.5259C12.5615 14.4333 12.7225 14.2989 12.8467 14.1333C12.9709 13.9677 13.0549 13.7755 13.0919 13.5718C13.1289 13.3682 13.118 13.1587 13.0601 12.96C12.7208 11.8905 12.0447 10.9594 11.1327 10.3058C10.2208 9.65215 9.12185 9.31102 8.00006 9.33333C6.87826 9.31102 5.77934 9.65215 4.86737 10.3058C3.95541 10.9594 3.27932 11.8905 2.94006 12.96C2.88194 13.1593 2.87114 13.3693 2.90852 13.5735C2.94591 13.7777 3.03044 13.9703 3.15539 14.136C3.28033 14.3017 3.44225 14.436 3.62824 14.5281C3.81424 14.6203 4.01917 14.6677 4.22672 14.6667H11.7801Z" stroke="white" stroke-linecap="round" stroke-linejoin="round"/>
</svg>
