<svg width="46" height="28" viewBox="0 0 46 28" fill="none" xmlns="http://www.w3.org/2000/svg">
<rect width="46" height="28" rx="4" fill="white"/>
<g clip-path="url(#clip0_1_25621)">
<path d="M18.9926 19.845H14.0156V8.00098H19.1716C21.5896 8.00098 22.4306 9.96998 21.2076 11.787L20.6286 12.646C24.6836 14.752 23.3656 19.846 18.9906 19.846M18.3996 13.211L19.3876 11.736C19.5807 11.4908 19.6863 11.1881 19.6876 10.876C19.6765 10.5197 19.5274 10.1816 19.2718 9.93312C19.0162 9.68462 18.6741 9.5451 18.3176 9.54398H16.8046V18.254H17.6446C17.9833 18.2856 18.3247 18.241 18.6439 18.1236C18.9632 18.0062 19.2521 17.8189 19.4896 17.5754C19.727 17.3319 19.907 17.0383 20.0164 16.7163C20.1258 16.3942 20.1617 16.0517 20.1216 15.714C20.1944 15.1584 20.0589 14.5956 19.7413 14.1339C19.4237 13.6723 18.9465 13.3446 18.4016 13.214" fill="#004290"/>
<path d="M8.975 19.845H4V8.00098H9.157C11.574 8.00098 12.417 9.96998 11.192 11.787L10.614 12.646C14.668 14.752 13.35 19.845 8.975 19.845ZM8.384 13.211L9.372 11.736C9.56506 11.4908 9.67065 11.1881 9.672 10.876C9.66138 10.5201 9.51304 10.1822 9.25822 9.93359C9.00341 9.68493 8.66203 9.54489 8.306 9.54298H6.787V18.253H7.628C7.96658 18.2844 8.30791 18.2398 8.627 18.1223C8.9461 18.0048 9.23489 17.8174 9.47225 17.5739C9.7096 17.3305 9.88952 17.037 9.99882 16.715C10.1081 16.393 10.1441 16.0506 10.104 15.713C10.1768 15.1574 10.0413 14.5946 9.72369 14.1329C9.4061 13.6713 8.92887 13.3436 8.384 13.213" fill="#004290"/>
<path d="M30.7636 8.00098H32.6326L29.0186 19.84H26.1806L22.3086 8.00098H24.4006C25.2086 8.00098 25.4206 8.20998 25.8436 9.55098L28.0856 16.997L30.7636 8.00098Z" fill="#004290"/>
<path d="M38.5681 9.207C38.2341 8.219 38.0091 8 37.1341 8H34.8711L31.2461 19.841H33.0931L33.8701 17.284H38.1781L38.9591 19.84H42.1591L38.5681 9.207ZM34.3891 15.55L36.0051 10.15L37.6451 15.55H34.3891Z" fill="#004290"/>
</g>
<defs>
<clipPath id="clip0_1_25621">
<rect width="38" height="18" fill="white" transform="translate(4 5)"/>
</clipPath>
</defs>
</svg>
