<svg width="101" height="28" viewBox="0 0 101 28" fill="none" xmlns="http://www.w3.org/2000/svg">
<rect width="101" height="28" rx="4" fill="white"/>
<g clip-path="url(#clip0_1_25489)">
<path d="M28.2724 16.2167C27.9725 16.2167 27.6754 16.158 27.3983 16.0438C27.1212 15.9297 26.8694 15.7624 26.6573 15.5514C26.4452 15.3405 26.2769 15.0901 26.1621 14.8145C26.0474 14.5389 25.9883 14.2436 25.9883 13.9453C25.9883 13.647 26.0474 13.3516 26.1621 13.076C26.2769 12.8004 26.4452 12.55 26.6573 12.3391C26.8694 12.1282 27.1212 11.9609 27.3983 11.8467C27.6754 11.7326 27.9725 11.6738 28.2724 11.6738C28.7599 11.6762 29.2377 11.8091 29.6556 12.0587L29.3409 12.9231C29.0192 12.739 28.6562 12.6379 28.2851 12.6291C28.1061 12.6135 27.9259 12.6369 27.7569 12.6976C27.5879 12.7583 27.4343 12.8549 27.3066 12.9807C27.179 13.1064 27.0804 13.2583 27.0177 13.4257C26.9551 13.5932 26.9299 13.7722 26.9438 13.9503C26.9299 14.1285 26.9551 14.3075 27.0177 14.4749C27.0804 14.6424 27.179 14.7943 27.3066 14.92C27.4343 15.0457 27.5879 15.1423 27.7569 15.203C27.9259 15.2637 28.1061 15.2871 28.2851 15.2716C28.6756 15.2636 29.0569 15.1516 29.3891 14.9472L29.6975 15.8117C29.2702 16.0778 28.7765 16.2194 28.2724 16.2205" fill="#664A87"/>
<path d="M32.8219 12.5824C32.6526 12.5887 32.4865 12.6298 32.334 12.7032C32.1815 12.7765 32.046 12.8805 31.9359 13.0086C31.8259 13.1366 31.7437 13.286 31.6946 13.4472C31.6455 13.6084 31.6305 13.778 31.6506 13.9453C31.6238 14.1137 31.6341 14.2859 31.6806 14.4501C31.7272 14.6142 31.809 14.7664 31.9204 14.8961C32.0317 15.0257 32.1701 15.1299 32.3258 15.2013C32.4816 15.2727 32.651 15.3096 32.8225 15.3096C32.994 15.3096 33.1635 15.2727 33.3192 15.2013C33.475 15.1299 33.6133 15.0257 33.7247 14.8961C33.8361 14.7664 33.9179 14.6142 33.9644 14.4501C34.011 14.2859 34.0212 14.1137 33.9944 13.9453C34.0143 13.7779 33.9992 13.6083 33.9499 13.4471C33.9007 13.2859 33.8184 13.1365 33.7082 13.0085C33.5981 12.8805 33.4625 12.7765 33.3099 12.7032C33.1574 12.6298 32.9912 12.5887 32.8219 12.5824ZM32.8041 16.2155C32.5028 16.2272 32.2022 16.1761 31.9219 16.0656C31.6415 15.9551 31.3874 15.7876 31.1759 15.5737C30.9645 15.3598 30.8003 15.1044 30.6939 14.8238C30.5875 14.5431 30.5412 14.2435 30.5581 13.944C30.5463 13.6426 30.5973 13.342 30.7079 13.0611C30.8186 12.7802 30.9864 12.5251 31.2009 12.3118C31.4154 12.0985 31.6719 11.9316 31.9544 11.8216C32.2368 11.7116 32.5391 11.6608 32.8422 11.6725C33.1434 11.6616 33.4436 11.7132 33.7237 11.824C34.0038 11.9347 34.2576 12.1023 34.469 12.316C34.6804 12.5296 34.8448 12.7847 34.9516 13.065C35.0584 13.3453 35.1054 13.6447 35.0895 13.944C35.1009 14.2453 35.0496 14.5458 34.9389 14.8265C34.8281 15.1072 34.6603 15.3621 34.4459 15.5754C34.2315 15.7886 33.9751 15.9555 33.6928 16.0656C33.4105 16.1758 33.1071 16.2268 32.8041 16.2155Z" fill="#664A87"/>
<path d="M40.0769 16.2286L37.412 13.8436V16.144H36.3867V11.6819L36.525 11.6592L39.1581 14.0253V11.7425H40.1847V16.2109L40.0769 16.2286Z" fill="#664A87"/>
<path d="M42.6594 12.6805V13.6534H44.1822V14.5519H42.6594V16.1495H41.6328V11.7441H44.4347V12.6805H42.6594Z" fill="#664A87"/>
<path d="M46.6008 11.7441H45.5742V16.1457H46.6008V11.7441Z" fill="#664A87"/>
<path d="M49.716 13.5081L49.2744 14.5643H50.15L49.716 13.5081ZM50.8086 16.1442L50.4761 15.3454H48.9534L48.6222 16.1442H47.5664L49.65 11.7061H49.7884L51.8809 16.1442H50.8086Z" fill="#664A87"/>
<path d="M56.5222 16.2286L53.8574 13.8436V16.144H52.832V11.6819L52.9703 11.6592L55.6034 14.0253V11.7425H56.63V16.2109L56.5222 16.2286Z" fill="#664A87"/>
<path d="M59.3419 15.2157H61.4611V16.147H57.705L57.6758 16.0384L59.8673 12.6817H57.8369V11.7441H61.5093L61.5385 11.859L59.3419 15.2157Z" fill="#664A87"/>
<path d="M64.4194 13.5081L63.9791 14.5643H64.8547L64.4194 13.5081ZM65.5133 16.1442L65.1808 15.3454H63.6581L63.3269 16.1442H62.2812L64.3649 11.7061H64.5032L66.5868 16.1442H65.5133Z" fill="#664A87"/>
<path d="M70.2673 11.9841C70.0158 11.9876 69.7677 12.0421 69.538 12.144C69.3084 12.246 69.1019 12.3933 68.9314 12.5771C68.7608 12.7609 68.6296 12.9773 68.5458 13.2132C68.462 13.449 68.4273 13.6993 68.4438 13.9489C68.4239 14.1992 68.4563 14.4508 68.5389 14.6881C68.6215 14.9253 68.7526 15.143 68.924 15.3274C69.0953 15.5118 69.3031 15.659 69.5344 15.7596C69.7657 15.8603 70.0155 15.9122 70.268 15.9122C70.5204 15.9122 70.7702 15.8603 71.0015 15.7596C71.2328 15.659 71.4406 15.5118 71.612 15.3274C71.7833 15.143 71.9144 14.9253 71.997 14.6881C72.0797 14.4508 72.112 14.1992 72.0921 13.9489C72.1086 13.6992 72.0739 13.4488 71.99 13.2129C71.9061 12.977 71.7748 12.7605 71.6041 12.5767C71.4334 12.3929 71.2268 12.2455 70.997 12.1436C70.7672 12.0418 70.5189 11.9875 70.2673 11.9841ZM70.2559 16.2064C69.9621 16.2058 69.6715 16.1463 69.4014 16.0315C69.1312 15.9167 68.8871 15.7489 68.6836 15.5382C68.4801 15.3275 68.3214 15.0781 68.217 14.8051C68.1126 14.532 68.0646 14.2408 68.0758 13.9489C68.0908 13.5203 68.2324 13.1056 68.4831 12.7566C68.7337 12.4076 69.0821 12.1398 69.4849 11.9867C69.8877 11.8335 70.327 11.8018 70.7478 11.8955C71.1686 11.9891 71.5523 12.2041 71.851 12.5134C72.1497 12.8227 72.3501 13.2127 72.4272 13.6346C72.5043 14.0565 72.4547 14.4917 72.2845 14.8857C72.1143 15.2798 71.8311 15.6152 71.4703 15.8501C71.1095 16.085 70.6871 16.2089 70.2559 16.2064Z" fill="#7E90A2"/>
<path d="M78.0134 16.2108L75.0668 12.4756V16.1452H74.7344V11.6944L74.8131 11.6768L77.7317 15.3704V11.7424H78.0692V16.1982L78.0134 16.2108Z" fill="#7E90A2"/>
<path d="M80.5664 16.1457V11.7441H80.9052V15.8391H83.0625V16.1457H80.5664Z" fill="#7E90A2"/>
<path d="M85.4365 11.7441H85.0977V16.1457H85.4365V11.7441Z" fill="#7E90A2"/>
<path d="M91.2048 16.2108L88.2583 12.4756V16.1452H87.9258V11.6944L88.0045 11.6768L90.9231 15.3704V11.7424H91.2606V16.1982L91.2048 16.2108Z" fill="#7E90A2"/>
<path d="M93.75 16.1457V11.7441H96.2499V12.0445H94.0926V13.7619H96.0341V14.0623H94.085V15.8391H96.2422V16.1457H93.75Z" fill="#7E90A2"/>
<path d="M12.7373 16.3367C12.2719 16.337 11.8168 16.2 11.4298 15.943C11.0427 15.686 10.7409 15.3206 10.5627 14.8931C10.3845 14.4655 10.3378 13.995 10.4285 13.541C10.5193 13.0871 10.7434 12.6701 11.0725 12.3428C11.4016 12.0155 11.8209 11.7927 12.2774 11.7024C12.7339 11.6122 13.207 11.6586 13.6369 11.8359C14.0669 12.0131 14.4343 12.3132 14.6927 12.6981C14.9511 13.0831 15.0889 13.5356 15.0887 13.9984C15.0887 14.3055 15.0279 14.6096 14.9097 14.8933C14.7915 15.177 14.6183 15.4347 14.4 15.6519C14.1816 15.869 13.9224 16.0412 13.6371 16.1587C13.3519 16.2763 13.0461 16.3367 12.7373 16.3367ZM12.7373 10.0928C11.9605 10.0925 11.201 10.3214 10.555 10.7504C9.90896 11.1794 9.40537 11.7893 9.10792 12.5029C8.81047 13.2166 8.73251 14.0019 8.88391 14.7596C9.0353 15.5173 9.40926 16.2133 9.95847 16.7597C10.5077 17.306 11.2075 17.6781 11.9694 17.8289C12.7312 17.9797 13.521 17.9024 14.2387 17.6069C14.9564 17.3113 15.5699 16.8107 16.0015 16.1684C16.4331 15.5261 16.6635 14.7709 16.6635 13.9984C16.6636 13.4856 16.5622 12.9777 16.365 12.5039C16.1677 12.03 15.8786 11.5995 15.514 11.2368C15.1494 10.8741 14.7165 10.5864 14.2401 10.3901C13.7637 10.1938 13.253 10.0928 12.7373 10.0928Z" fill="#7E90A2"/>
<path d="M12.7299 5C10.94 5 9.19019 5.52784 7.70189 6.51677C6.21358 7.50571 5.05359 8.91131 4.3686 10.5558C3.68361 12.2004 3.50438 14.01 3.85359 15.7558C4.2028 17.5016 5.06475 19.1053 6.33045 20.364C7.59615 21.6226 9.20874 22.4798 10.9643 22.8271C12.7199 23.1743 14.5396 22.9961 16.1933 22.3149C17.847 21.6337 19.2605 20.4802 20.2549 19.0001C21.2494 17.5201 21.7802 15.78 21.7802 14C21.7802 13.7975 21.6993 13.6033 21.5553 13.4601C21.4113 13.317 21.2161 13.2365 21.0125 13.2365C20.8088 13.2365 20.6136 13.317 20.4696 13.4601C20.3256 13.6033 20.2447 13.7975 20.2447 14C20.2445 15.4783 19.8034 16.9233 18.9773 18.1523C18.1513 19.3813 16.9772 20.3391 15.6038 20.9046C14.2303 21.4701 12.719 21.6179 11.2611 21.3292C9.80318 21.0406 8.46407 20.3285 7.41311 19.283C6.36214 18.2375 5.64653 16.9056 5.35677 15.4557C5.06701 14.0057 5.21611 12.5029 5.78521 11.1373C6.35432 9.7716 7.31787 8.60443 8.55402 7.78335C9.79017 6.96227 11.2434 6.52415 12.7299 6.5244C12.9332 6.5244 13.1282 6.44409 13.2719 6.30115C13.4156 6.15821 13.4964 5.96435 13.4964 5.7622C13.4964 5.56005 13.4156 5.36618 13.2719 5.22324C13.1282 5.0803 12.9332 5 12.7299 5Z" fill="#664A87"/>
<path d="M12.7312 7.52734C11.005 7.52734 9.34954 8.20925 8.12895 9.42306C6.90837 10.6369 6.22266 12.2831 6.22266 13.9997C6.22266 15.7163 6.90837 17.3626 8.12895 18.5764C9.34954 19.7902 11.005 20.4721 12.7312 20.4721C12.8345 20.4721 12.9368 20.4519 13.0322 20.4125C13.1277 20.3732 13.2144 20.3156 13.2875 20.2429C13.3605 20.1703 13.4185 20.084 13.458 19.9891C13.4976 19.8942 13.5179 19.7925 13.5179 19.6897C13.5179 19.587 13.4976 19.4852 13.458 19.3903C13.4185 19.2954 13.3605 19.2091 13.2875 19.1365C13.2144 19.0638 13.1277 19.0062 13.0322 18.9669C12.9368 18.9276 12.8345 18.9073 12.7312 18.9073C11.7551 18.9076 10.8008 18.62 9.98908 18.0809C9.17736 17.5418 8.54463 16.7754 8.17092 15.8787C7.79721 14.9819 7.6993 13.9951 7.88957 13.0431C8.07985 12.091 8.54976 11.2164 9.23988 10.53C9.93 9.8435 10.8093 9.37598 11.7667 9.18651C12.724 8.99705 13.7163 9.09416 14.6181 9.46557C15.52 9.83698 16.2908 10.466 16.8331 11.2731C17.3754 12.0802 17.6649 13.029 17.6649 13.9997C17.6731 14.202 17.7596 14.3932 17.9064 14.5334C18.0531 14.6736 18.2488 14.7519 18.4523 14.7519C18.6558 14.7519 18.8514 14.6736 18.9982 14.5334C19.145 14.3932 19.2315 14.202 19.2397 13.9997C19.2397 12.2831 18.554 10.6369 17.3334 9.42306C16.1128 8.20925 14.4573 7.52734 12.7312 7.52734Z" fill="#BAC621"/>
</g>
<defs>
<clipPath id="clip0_1_25489">
<rect width="93" height="18" fill="white" transform="translate(4 5)"/>
</clipPath>
</defs>
</svg>
