<svg width="66" height="28" viewBox="0 0 66 28" fill="none" xmlns="http://www.w3.org/2000/svg">
<rect width="66" height="28" rx="4" fill="white"/>
<g clip-path="url(#clip0_1_25510)">
<path d="M27.5079 7.94141H28.4706V11.1934C28.4789 11.3734 28.4495 11.5533 28.3844 11.722C28.3192 11.8907 28.2196 12.0449 28.0916 12.1752C27.9398 12.3075 27.7622 12.4087 27.5692 12.4726C27.3763 12.5366 27.1721 12.562 26.9688 12.5473C26.5875 12.5678 26.2132 12.4417 25.9267 12.1962C25.7947 12.0579 25.6935 11.8945 25.6295 11.7162C25.5655 11.538 25.5401 11.3488 25.5549 11.1606V10.7042H26.4237V11.1138C26.4089 11.2904 26.451 11.467 26.544 11.6193C26.6608 11.7236 26.8132 11.782 26.9717 11.7833C27.1302 11.7846 27.2835 11.7287 27.402 11.6264C27.4865 11.4636 27.5235 11.2815 27.5091 11.0998L27.5079 7.94141Z" fill="#2E281F"/>
<path d="M31.043 12.3879V11.9198C30.9358 12.0966 30.7807 12.2413 30.5945 12.3381C30.4084 12.4349 30.1985 12.4801 29.9877 12.4686C29.8284 12.471 29.6703 12.4415 29.5232 12.382C29.3858 12.3257 29.2627 12.241 29.1622 12.1339C29.0573 12.0227 28.9756 11.8927 28.9215 11.7513C28.8627 11.5926 28.8337 11.4249 28.8361 11.2563V9.08789H29.7302V11.1264C29.7302 11.5375 29.9211 11.7431 30.303 11.7431C30.4007 11.7495 30.4986 11.7339 30.589 11.6973C30.6794 11.6608 30.7599 11.6043 30.824 11.5324C30.9456 11.3776 31.0078 11.1864 30.9997 10.9918V9.08789H31.8962V12.3879H31.043Z" fill="#2E281F"/>
<path d="M33.0959 10.9667C33.0967 11.1849 33.1759 11.396 33.3198 11.5635C33.3865 11.6364 33.469 11.6941 33.5614 11.7323C33.6538 11.7705 33.7537 11.7884 33.8541 11.7846C33.9903 11.7871 34.1246 11.7536 34.2427 11.6875C34.2958 11.6587 34.3424 11.6198 34.3798 11.5732C34.4172 11.5265 34.4447 11.4731 34.4605 11.416H35.3847C35.2965 11.7303 35.1019 12.0065 34.8324 12.2C34.5585 12.3873 34.2297 12.4838 33.895 12.475C32.7654 12.475 32.2002 11.8759 32.1994 10.6776C32.1961 10.4432 32.2332 10.2098 32.3089 9.9872C32.3774 9.79126 32.4868 9.61118 32.6302 9.45827C32.7729 9.30885 32.9486 9.19282 33.1441 9.11891C33.3663 9.03784 33.6023 8.99815 33.8396 9.00189C34.0634 8.98796 34.2875 9.0249 34.4941 9.10981C34.7006 9.19471 34.8841 9.32523 35.0297 9.49104C35.3305 9.92503 35.4725 10.4447 35.4329 10.9667H33.0959ZM34.5087 10.4167C34.5062 10.3077 34.4843 10.2 34.4437 10.0984C34.4081 10.013 34.3553 9.93545 34.2885 9.87018C34.2253 9.81088 34.1498 9.76539 34.067 9.73678C33.987 9.70965 33.9027 9.69619 33.8179 9.69699C33.7311 9.69636 33.6451 9.71307 33.5652 9.74608C33.4853 9.77909 33.4132 9.8277 33.3534 9.88891C33.2143 10.0337 33.1346 10.2232 33.1296 10.4213L34.5087 10.4167Z" fill="#2E281F"/>
<path d="M38.113 11.9458C38.0455 12.1005 37.9216 12.2255 37.7652 12.2969C37.5839 12.3826 37.3843 12.4251 37.1828 12.4209C36.9385 12.4285 36.6959 12.3792 36.4752 12.277C36.2929 12.1877 36.135 12.0578 36.0143 11.8979C35.8934 11.7349 35.8067 11.5504 35.7592 11.3549C35.7061 11.149 35.6794 10.9376 35.6798 10.7253C35.6778 10.4863 35.7185 10.2487 35.8001 10.0232C35.8704 9.82462 35.9781 9.64049 36.1178 9.48024C36.2466 9.33243 36.4061 9.21279 36.5859 9.12918C36.767 9.04658 36.9647 9.00421 37.1647 9.00514C37.3547 8.99604 37.5437 9.03742 37.7114 9.12483C37.8791 9.21223 38.0192 9.34238 38.1166 9.5013V9.09056H39.0131V12.4221C39.0181 12.6487 38.9734 12.8737 38.8819 13.0821C38.7994 13.2649 38.6761 13.4276 38.5209 13.5584C38.3632 13.6892 38.1804 13.7882 37.983 13.8498C37.5546 13.9816 37.0949 13.9816 36.6665 13.8498C36.4766 13.7916 36.3001 13.6982 36.1467 13.5748C36.0017 13.4568 35.885 13.3094 35.8049 13.143C35.721 12.9618 35.6798 12.7647 35.6846 12.5661H36.5185C36.5128 12.6541 36.5281 12.7422 36.5634 12.8234C36.5987 12.9046 36.653 12.9768 36.7219 13.0341C36.8764 13.1501 37.0684 13.2086 37.2634 13.1991C37.4806 13.2041 37.693 13.1363 37.8651 13.0072C37.9458 12.946 38.0105 12.8669 38.0536 12.7766C38.0967 12.6862 38.117 12.5872 38.113 12.4877V11.9458ZM37.3753 11.7317C37.4796 11.7336 37.583 11.7126 37.6778 11.6703C37.7726 11.6279 37.8564 11.5653 37.9228 11.4871C38.0771 11.2983 38.1546 11.0609 38.1406 10.8201C38.1406 10.1133 37.8855 9.76226 37.3753 9.76694C36.8651 9.77162 36.61 10.1067 36.61 10.7721C36.5965 11.0237 36.6735 11.2719 36.8278 11.4743C36.8915 11.5565 36.9743 11.6231 37.0694 11.6684C37.1646 11.7137 37.2694 11.7366 37.3753 11.7352" fill="#2E281F"/>
<path d="M41.0756 12.4741C40.8236 12.4783 40.5732 12.4354 40.3379 12.3477C40.1305 12.2694 39.9433 12.1476 39.7896 11.9911C39.6359 11.8346 39.5195 11.6471 39.4486 11.442C39.3675 11.2163 39.3268 10.9789 39.3283 10.7398C39.3251 10.4977 39.3659 10.2568 39.4486 10.0284C39.5216 9.82377 39.6396 9.63712 39.7945 9.48149C39.9493 9.32586 40.1373 9.20498 40.3451 9.12731C40.5755 9.04177 40.8206 8.99967 41.0672 9.00327C41.3138 8.99865 41.5591 9.04078 41.7892 9.12731C41.9951 9.2046 42.1811 9.3248 42.3341 9.47945C42.4871 9.63411 42.6034 9.81947 42.6749 10.0225C42.8353 10.4868 42.8353 10.9894 42.6749 11.4537C42.6 11.6569 42.4828 11.8429 42.3307 12.0002C42.1775 12.1544 41.9914 12.2743 41.7856 12.3512C41.558 12.4365 41.3158 12.4786 41.072 12.4753M41.072 11.745C41.6183 11.745 41.8919 11.41 41.8927 10.7398C41.8935 10.0697 41.6199 9.7366 41.072 9.7405C40.5256 9.7405 40.2521 10.0736 40.2513 10.7398C40.2505 11.4061 40.524 11.7411 41.072 11.745Z" fill="#2E281F"/>
<path d="M28.3554 18.5025V17.3569C28.3639 17.2742 28.3548 17.1908 28.3287 17.1116C28.3026 17.0325 28.2601 16.9595 28.2037 16.897C28.038 16.7874 27.8374 16.7388 27.6382 16.7601H26.6177V18.5025H25.6875V14.0558H28.01C28.2066 14.0534 28.402 14.0864 28.5864 14.1529C28.7508 14.2136 28.9016 14.3046 29.0305 14.4209C29.1549 14.536 29.2525 14.6756 29.3169 14.8305C29.3841 14.9934 29.418 15.1675 29.4167 15.343C29.4211 15.5682 29.3602 15.79 29.241 15.9831C29.1251 16.1679 28.9456 16.3067 28.7344 16.3751C28.9086 16.419 29.0612 16.5214 29.1652 16.6642C29.2622 16.8441 29.3063 17.0465 29.2928 17.2493V18.5096L28.3554 18.5025ZM26.6177 14.8223V16.0088H27.8211C27.9189 16.0185 28.0177 16.0086 28.1114 15.9799C28.2051 15.9511 28.2918 15.904 28.3662 15.8415C28.4726 15.7256 28.529 15.5743 28.5238 15.4191C28.5301 15.2619 28.4746 15.1084 28.3686 14.9896C28.2999 14.9282 28.2186 14.8815 28.13 14.8527C28.0415 14.8238 27.9477 14.8135 27.8548 14.8223H26.6177Z" fill="#2E281F"/>
<path d="M30.5097 17.0829C30.5105 17.3011 30.5897 17.5122 30.7335 17.6797C30.8003 17.7526 30.8828 17.8103 30.9752 17.8485C31.0675 17.8868 31.1675 17.9046 31.2678 17.9008C31.4028 17.9027 31.5358 17.8692 31.6529 17.8037C31.706 17.7749 31.7526 17.736 31.79 17.6894C31.8274 17.6427 31.8548 17.5893 31.8707 17.5322H32.7949C32.7067 17.8465 32.5121 18.1227 32.2425 18.3163C31.9686 18.5036 31.6399 18.6 31.3051 18.5913C30.1748 18.5913 29.6096 17.9921 29.6096 16.7938C29.6063 16.5594 29.6433 16.326 29.7191 16.1034C29.7876 15.9075 29.897 15.7274 30.0404 15.5745C30.1831 15.4251 30.3588 15.309 30.5542 15.2351C30.7765 15.1541 31.0124 15.1144 31.2498 15.1181C31.4736 15.1042 31.6977 15.1411 31.9042 15.226C32.1108 15.3109 32.2942 15.4414 32.4399 15.6072C32.7406 16.0412 32.8826 16.561 32.843 17.0829H30.5097ZM31.9225 16.5329C31.92 16.4239 31.898 16.3162 31.8575 16.2146C31.8218 16.1292 31.7691 16.0517 31.7022 15.9864C31.6388 15.9271 31.5634 15.8813 31.4808 15.8518C31.3989 15.8234 31.3127 15.8087 31.2257 15.8085C31.1389 15.8079 31.0529 15.8246 30.973 15.8576C30.8931 15.8906 30.821 15.9392 30.7612 16.0004C30.6224 16.1456 30.5425 16.3348 30.5362 16.5329H31.9225Z" fill="#2E281F"/>
<path d="M35.1967 16.2023C35.1928 16.1369 35.1749 16.073 35.144 16.0147C35.1131 15.9565 35.07 15.9052 35.0174 15.8641C34.8789 15.789 34.7207 15.7552 34.5625 15.767C34.4282 15.7609 34.2941 15.7824 34.169 15.8302C34.1266 15.8476 34.0907 15.8773 34.0662 15.9151C34.0417 15.953 34.0297 15.9973 34.0318 16.042C34.0305 16.0881 34.0426 16.1336 34.0669 16.1732C34.0912 16.2128 34.1267 16.2448 34.169 16.2655C34.3004 16.3316 34.4393 16.3823 34.583 16.4165C34.7767 16.4703 34.9596 16.5183 35.1341 16.5604C35.2908 16.5978 35.445 16.6439 35.5962 16.6985C35.7587 16.7576 35.9017 16.8583 36.0102 16.9899C36.1143 17.1387 36.165 17.3168 36.1546 17.4966C36.1623 17.6499 36.1322 17.8029 36.0669 17.9427C36.0016 18.0825 35.903 18.2052 35.7791 18.3005C35.4539 18.5139 35.0647 18.6156 34.6732 18.5895C34.2463 18.617 33.8223 18.5036 33.4699 18.2677C33.3385 18.1722 33.2314 18.0487 33.1568 17.9067C33.0821 17.7648 33.0418 17.608 33.0391 17.4486H33.9632C33.9598 17.5192 33.9751 17.5895 34.0075 17.6528C34.0399 17.7161 34.0885 17.7703 34.1486 17.8102C34.3034 17.9035 34.4841 17.948 34.666 17.9377C34.81 17.941 34.9531 17.9146 35.086 17.8605C35.1415 17.84 35.1887 17.8026 35.2206 17.7539C35.2524 17.7052 35.2673 17.6478 35.2629 17.5902C35.2655 17.5377 35.2515 17.4857 35.2226 17.4413C35.1938 17.3969 35.1515 17.3623 35.1016 17.3421C34.9784 17.2881 34.8503 17.2454 34.719 17.2145C34.4342 17.1482 34.2043 17.0878 34.0294 17.0332C33.8737 16.9886 33.725 16.9232 33.5878 16.8389C33.4461 16.7603 33.3301 16.6442 33.2533 16.5042C33.1909 16.3763 33.1592 16.2362 33.1606 16.0947C33.1596 15.9616 33.1853 15.8296 33.2364 15.7062C33.2892 15.5828 33.3747 15.4754 33.4843 15.3949C33.6175 15.2989 33.7688 15.2294 33.9296 15.1901C34.1446 15.137 34.366 15.1122 34.5878 15.1164C34.9703 15.0869 35.3519 15.1838 35.6708 15.3914C35.7908 15.4919 35.887 15.6164 35.9531 15.7563C36.0191 15.8962 36.0534 16.0484 36.0535 16.2023H35.1967Z" fill="#2E281F"/>
<path d="M36.4102 20.0653V15.2055H37.2718L37.279 15.608C37.3753 15.4501 37.5143 15.3209 37.6808 15.2345C37.8474 15.148 38.0351 15.1077 38.2236 15.1177C38.4261 15.1154 38.6268 15.1553 38.8121 15.2347C38.9928 15.3157 39.1522 15.4357 39.2778 15.5858C39.4138 15.7514 39.5167 15.9403 39.581 16.1428C39.658 16.3837 39.6954 16.6349 39.6917 16.8871C39.6942 17.1192 39.6626 17.3505 39.5979 17.574C39.5428 17.7688 39.4505 17.9517 39.3259 18.1134C39.2102 18.2622 39.0602 18.3825 38.8879 18.4645C38.7044 18.5499 38.5029 18.5923 38.2994 18.5885C38.1004 18.5922 37.9037 18.5468 37.7276 18.4565C37.5514 18.3663 37.4017 18.2342 37.2922 18.0725V20.0618L36.4102 20.0653ZM38.0094 17.8419C38.5245 17.8419 38.782 17.5022 38.782 16.8227C38.7933 16.5661 38.7181 16.313 38.5678 16.1019C38.5065 16.0151 38.4241 15.9444 38.3279 15.8961C38.2318 15.8477 38.1249 15.8231 38.0167 15.8245C37.9117 15.8236 37.8079 15.8467 37.7138 15.892C37.6197 15.9374 37.538 16.0036 37.4751 16.0855C37.3228 16.2816 37.2457 16.5233 37.2573 16.7689C37.2573 17.4843 37.508 17.8419 38.0094 17.8419Z" fill="#2E281F"/>
<path d="M41.6811 18.5913C41.4291 18.5955 41.1787 18.5526 40.9434 18.4649C40.7359 18.3866 40.5487 18.2648 40.395 18.1083C40.2414 17.9518 40.125 17.7643 40.0541 17.5592C39.973 17.3335 39.9323 17.096 39.9338 16.857C39.9306 16.6148 39.9714 16.374 40.0541 16.1456C40.1271 15.941 40.2451 15.7543 40.4 15.5987C40.5548 15.443 40.7427 15.3222 40.9506 15.2445C41.181 15.159 41.426 15.1169 41.6726 15.1205C41.9193 15.1158 42.1645 15.158 42.3947 15.2445C42.6005 15.3218 42.7865 15.442 42.9395 15.5966C43.0925 15.7513 43.2089 15.9367 43.2803 16.1397C43.4408 16.604 43.4408 17.1066 43.2803 17.5709C43.2055 17.7741 43.0883 17.9601 42.9362 18.1173C42.783 18.2716 42.5969 18.3915 42.391 18.4684C42.1635 18.5537 41.9213 18.5958 41.6774 18.5924M41.6774 17.8622C42.2238 17.8622 42.4973 17.5272 42.4981 16.857C42.4989 16.1869 42.2254 15.8538 41.6774 15.8577C41.1311 15.8577 40.8576 16.1908 40.8567 16.857C40.8559 17.5233 41.1295 17.8583 41.6774 17.8622Z" fill="#2E281F"/>
<path d="M45.9104 18.5027V16.5051C45.9318 16.3234 45.8852 16.1402 45.7792 15.9891C45.7176 15.9387 45.6463 15.9008 45.5694 15.8777C45.4925 15.8545 45.4116 15.8467 45.3315 15.8545C44.867 15.8545 44.6348 16.1069 44.6348 16.6116V18.5027H43.7383V15.2039H44.5939V15.6872C44.6893 15.5092 44.835 15.3614 45.0139 15.2612C45.3654 15.0992 45.7671 15.0728 46.1378 15.1875C46.2708 15.2312 46.392 15.3031 46.4928 15.3981C46.595 15.4982 46.6749 15.6177 46.7275 15.7492C46.7874 15.8982 46.8168 16.0572 46.8141 16.2173V18.5038L45.9104 18.5027Z" fill="#2E281F"/>
<path d="M49.2397 16.2024C49.2358 16.137 49.2178 16.0731 49.187 16.0148C49.1561 15.9566 49.1129 15.9053 49.0604 15.8643C48.9219 15.7891 48.7636 15.7553 48.6055 15.7671C48.4712 15.761 48.3371 15.7825 48.212 15.8303C48.1696 15.8477 48.1337 15.8774 48.1092 15.9153C48.0847 15.9531 48.0727 15.9974 48.0748 16.0421C48.0734 16.0882 48.0856 16.1337 48.1099 16.1733C48.1342 16.2129 48.1696 16.2449 48.212 16.2656C48.3433 16.3318 48.4823 16.3824 48.626 16.4166C48.8197 16.4704 49.0026 16.5184 49.1771 16.5605C49.3337 16.5979 49.488 16.644 49.6392 16.6986C49.8017 16.7577 49.9447 16.8584 50.0532 16.99C50.1572 17.1389 50.208 17.3169 50.1976 17.4967C50.2052 17.6501 50.1752 17.803 50.1099 17.9428C50.0446 18.0827 49.9459 18.2053 49.8221 18.3006C49.4969 18.514 49.1077 18.6158 48.7162 18.5897C48.2893 18.6171 47.8653 18.5037 47.5128 18.2678C47.3815 18.1723 47.2744 18.0488 47.1997 17.9069C47.1251 17.7649 47.0848 17.6082 47.082 17.4487H48.0062C48.0028 17.5194 48.018 17.5897 48.0505 17.653C48.0829 17.7163 48.1315 17.7704 48.1915 17.8103C48.3464 17.9036 48.5271 17.9482 48.709 17.9379C48.853 17.9411 48.9961 17.9148 49.129 17.8606C49.1839 17.8408 49.2309 17.8045 49.2631 17.7569C49.2953 17.7094 49.3112 17.653 49.3083 17.5962C49.3109 17.5437 49.2969 17.4917 49.268 17.4473C49.2391 17.4029 49.1969 17.3682 49.147 17.3481C49.0238 17.2941 48.8957 17.2514 48.7643 17.2205C48.4795 17.1542 48.2497 17.0937 48.0748 17.0391C47.9191 16.9946 47.7704 16.9292 47.6332 16.8449C47.49 16.7646 47.3732 16.6466 47.2962 16.5044C47.2339 16.3764 47.2022 16.2364 47.2036 16.0948C47.2026 15.9617 47.2283 15.8297 47.2794 15.7063C47.3321 15.583 47.4177 15.4755 47.5273 15.395C47.6605 15.2991 47.8118 15.2295 47.9725 15.1902C48.1876 15.1371 48.409 15.1124 48.6308 15.1165C49.0133 15.087 49.3949 15.1839 49.7138 15.3915C49.8337 15.492 49.93 15.6165 49.996 15.7564C50.0621 15.8964 50.0963 16.0485 50.0965 16.2024H49.2397Z" fill="#2E281F"/>
<path d="M52.5776 18.502C52.5475 18.4062 52.529 18.3072 52.5223 18.2072C52.4057 18.3299 52.2616 18.4249 52.1011 18.4845C51.9094 18.557 51.705 18.5924 51.4994 18.5886C51.1908 18.6153 50.8834 18.5252 50.6414 18.337C50.551 18.2532 50.4798 18.1516 50.4328 18.0391C50.3857 17.9265 50.3637 17.8055 50.3682 17.6841C50.3599 17.4885 50.4012 17.294 50.4886 17.1177C50.5629 16.98 50.6749 16.865 50.8123 16.7854C50.9653 16.6995 51.1321 16.6394 51.3057 16.6075C51.4958 16.57 51.7036 16.5353 51.929 16.5033C52.0877 16.4921 52.2424 16.4499 52.3839 16.3793C52.4237 16.3484 52.4551 16.3085 52.4755 16.2631C52.4959 16.2177 52.5047 16.1682 52.501 16.1188C52.4973 16.0693 52.4813 16.0215 52.4544 15.9795C52.4275 15.9374 52.3905 15.9023 52.3466 15.8773C52.2184 15.8107 52.0741 15.7792 51.929 15.786C51.8495 15.7787 51.7693 15.7868 51.6931 15.8099C51.6168 15.833 51.5461 15.8706 51.485 15.9206C51.3915 16.0171 51.332 16.1401 51.3153 16.2716H50.4814C50.4844 16.1121 50.5137 15.9541 50.568 15.8036C50.6193 15.6615 50.7071 15.5346 50.8231 15.435C50.9564 15.3251 51.1129 15.2452 51.2816 15.2009C51.506 15.1405 51.7383 15.1125 51.9711 15.1178C52.2006 15.1126 52.4295 15.1418 52.6498 15.2044C52.8177 15.2519 52.9713 15.3382 53.0975 15.456C53.2117 15.5704 53.2944 15.7108 53.3382 15.8644C53.391 16.0443 53.4166 16.2308 53.414 16.4179V18.5032L52.5776 18.502ZM52.5151 16.886C52.4581 16.9367 52.3897 16.9735 52.3153 16.9937C52.1905 17.0288 52.064 17.0577 51.9362 17.0803C51.7471 17.1038 51.5658 17.1681 51.4055 17.2687C51.3565 17.3083 51.3177 17.3586 51.2924 17.4155C51.2671 17.4725 51.256 17.5344 51.2599 17.5963C51.2599 17.8421 51.4055 17.9649 51.6943 17.9649C51.8041 17.9658 51.9131 17.9468 52.0157 17.9088C52.1096 17.8728 52.1961 17.8204 52.2708 17.7543C52.342 17.6891 52.4003 17.6117 52.4428 17.5261C52.4861 17.4393 52.5084 17.344 52.5078 17.2476L52.5151 16.886Z" fill="#2E281F"/>
<path d="M53.8008 18.5023V13.9971H54.6828V15.6353C54.7925 15.4738 54.9423 15.3418 55.1183 15.2516C55.2944 15.1614 55.4911 15.1159 55.6901 15.1193C55.8939 15.1156 56.0957 15.1581 56.2797 15.2433C56.4515 15.3256 56.6011 15.4458 56.7165 15.5944C56.8415 15.7564 56.9342 15.9398 56.9897 16.135C57.0535 16.3586 57.0847 16.5899 57.0824 16.8219C57.0866 17.0742 57.0492 17.3254 56.9717 17.5662C56.9073 17.7683 56.8045 17.9569 56.6684 18.122C56.5435 18.2724 56.3845 18.3925 56.2039 18.4731C56.0184 18.5532 55.8172 18.5931 55.6143 18.5901C55.4259 18.6002 55.2383 18.5599 55.0718 18.4737C54.9053 18.3874 54.7662 18.2586 54.6696 18.101L54.6624 18.5035L53.8008 18.5023ZM55.4073 17.8786C55.5156 17.88 55.6227 17.8553 55.7188 17.8067C55.815 17.7581 55.8973 17.6871 55.9584 17.6001C56.1093 17.3892 56.1845 17.1359 56.1726 16.8793C56.1726 16.2006 55.9151 15.8612 55.4001 15.8612C54.8995 15.8612 54.6492 16.2185 54.6492 16.9331C54.6369 17.1789 54.7135 17.4211 54.8658 17.6177C54.9286 17.6994 55.0104 17.7657 55.1045 17.811C55.1986 17.8563 55.3023 17.8795 55.4073 17.8786Z" fill="#2E281F"/>
<path d="M58.3145 13.9971H57.418V18.5023H58.3145V13.9971Z" fill="#2E281F"/>
<path d="M59.5139 17.0829C59.5147 17.3011 59.5939 17.5122 59.7377 17.6797C59.8045 17.7526 59.887 17.8103 59.9794 17.8485C60.0717 17.8868 60.1717 17.9046 60.272 17.9008C60.4082 17.9034 60.5426 17.8698 60.6607 17.8037C60.7138 17.7749 60.7604 17.736 60.7978 17.6894C60.8352 17.6427 60.8627 17.5893 60.8785 17.5322H61.8027C61.7145 17.8465 61.5199 18.1227 61.2504 18.3163C60.9764 18.5036 60.6477 18.6 60.3129 18.5913C59.1826 18.5913 58.6174 17.9921 58.6174 16.7938C58.6141 16.5594 58.6511 16.326 58.7269 16.1034C58.7954 15.9075 58.9048 15.7274 59.0482 15.5745C59.1909 15.4251 59.3666 15.309 59.562 15.2351C59.7843 15.1541 60.0202 15.1144 60.2576 15.1181C60.4814 15.1042 60.7055 15.1411 60.912 15.226C61.1186 15.3109 61.302 15.4414 61.4477 15.6072C61.7485 16.0412 61.8904 16.561 61.8508 17.0829H59.5139ZM60.9267 16.5329C60.9242 16.4239 60.9022 16.3162 60.8617 16.2146C60.826 16.1293 60.7732 16.0517 60.7064 15.9864C60.643 15.9271 60.5676 15.8813 60.485 15.8518C60.4031 15.8234 60.3169 15.8087 60.2299 15.8085C60.1431 15.8079 60.0571 15.8246 59.9772 15.8576C59.8973 15.8906 59.8252 15.9392 59.7654 16.0004C59.6266 16.1456 59.5467 16.3348 59.5404 16.5329H60.9267Z" fill="#2E281F"/>
<path d="M22.5102 14C22.5102 15.78 21.9674 17.5201 20.9505 19.0001C19.9335 20.4802 18.488 21.6337 16.7969 22.3149C15.1057 22.9961 13.2448 23.1743 11.4495 22.8271C9.65422 22.4798 8.00511 21.6226 6.71076 20.364C5.41641 19.1053 4.53495 17.5016 4.17784 15.7558C3.82073 14.01 4.00401 12.2004 4.70451 10.5558C5.40501 8.91131 6.59126 7.50571 8.11325 6.51677C9.63525 5.52784 11.4246 5 13.2551 5C15.7097 5 18.0638 5.94821 19.7995 7.63604C21.5351 9.32387 22.5102 11.6131 22.5102 14Z" fill="#FF0015"/>
<path d="M7.73299 16.4339V14.3849H5.63672V13.3656H7.73299V11.3271H8.78112V13.3656H10.8882V14.3849H8.78112V16.4339H7.73299Z" fill="white"/>
<path d="M12.7741 17.5942V12.622H11.2578V11.6461C11.5275 11.6508 11.7968 11.6253 12.0605 11.57C12.2523 11.5302 12.4329 11.4503 12.5899 11.336C12.7258 11.233 12.8329 11.0987 12.9016 10.9451C12.9779 10.771 13.0251 10.5861 13.0412 10.3975H14.2229V17.5977L12.7741 17.5942Z" fill="white"/>
<path d="M18.7059 13.6591C18.8722 13.7337 19.0247 13.8346 19.1572 13.9575C19.2944 14.0835 19.4127 14.2277 19.5086 14.3858C19.6067 14.5487 19.6816 14.7239 19.7312 14.9065C19.7836 15.0974 19.8099 15.2941 19.8094 15.4916C19.8128 15.8124 19.7599 16.1313 19.653 16.4348C19.5546 16.7158 19.3926 16.9718 19.1788 17.1837C18.9537 17.4017 18.6816 17.5684 18.3822 17.6717C18.0202 17.7935 17.6389 17.8522 17.2559 17.8449C16.8743 17.8518 16.4947 17.7911 16.1355 17.6658C15.8339 17.5599 15.5584 17.3937 15.3269 17.1779C15.1137 16.9728 14.9494 16.7247 14.8455 16.4512C14.7362 16.1652 14.6815 15.8622 14.6843 15.5571C14.6744 15.1729 14.7748 14.7936 14.9743 14.4618C15.1821 14.1376 15.4846 13.8809 15.8431 13.7246C15.5494 13.5837 15.3193 13.3425 15.1969 13.0471C15.0732 12.7602 15.0086 12.4524 15.0068 12.1413C15.0047 11.8707 15.0617 11.6026 15.174 11.355C15.2836 11.1159 15.4435 10.9018 15.6433 10.7266C15.8514 10.5446 16.0932 10.4029 16.3557 10.3088C16.6449 10.2049 16.9512 10.1534 17.2595 10.1567C17.5871 10.1509 17.9132 10.2025 18.2222 10.3088C18.4807 10.3988 18.7177 10.539 18.9189 10.7207C19.1033 10.8924 19.2459 11.1019 19.3365 11.3339C19.4318 11.5779 19.4791 11.8371 19.4761 12.098C19.4774 12.4094 19.4186 12.7182 19.3028 13.0085C19.1934 13.2912 18.9786 13.5234 18.7011 13.6591M17.2402 16.684C17.3925 16.6981 17.5461 16.677 17.6885 16.6225C17.8309 16.568 17.9581 16.4817 18.0597 16.3704C18.2414 16.1127 18.3294 15.8035 18.31 15.4916C18.3233 15.1999 18.2328 14.9127 18.0537 14.6783C17.9527 14.5679 17.8265 14.4819 17.6853 14.4273C17.5441 14.3726 17.3917 14.3508 17.2402 14.3635C17.0913 14.3502 16.9413 14.3707 16.8019 14.4235C16.6626 14.4763 16.5379 14.5599 16.4376 14.6678C16.2649 14.9068 16.1801 15.1953 16.1969 15.4869C16.1781 15.7974 16.2625 16.1055 16.4376 16.3658C16.5365 16.4774 16.6616 16.5642 16.8024 16.6188C16.9432 16.6734 17.0954 16.6942 17.2462 16.6794M17.2462 13.2425C17.3735 13.252 17.5013 13.2324 17.6193 13.1853C17.7374 13.1381 17.8425 13.0648 17.9261 12.971C18.0812 12.772 18.1599 12.5265 18.1488 12.2771C18.1625 12.0223 18.0837 11.7708 17.9261 11.5668C17.7431 11.3964 17.4996 11.3013 17.2462 11.3013C16.9929 11.3013 16.7493 11.3964 16.5663 11.5668C16.4084 11.7707 16.3291 12.0221 16.3425 12.2771C16.3317 12.5267 16.4108 12.7721 16.5663 12.971C16.6499 13.0649 16.7549 13.1384 16.873 13.1855C16.9911 13.2327 17.119 13.2522 17.2462 13.2425Z" fill="white"/>
</g>
<defs>
<clipPath id="clip0_1_25510">
<rect width="58" height="18" fill="white" transform="translate(4 5)"/>
</clipPath>
</defs>
</svg>
