<svg width="72" height="28" viewBox="0 0 72 28" fill="none" xmlns="http://www.w3.org/2000/svg">
<rect width="72" height="28" rx="4" fill="white"/>
<g clip-path="url(#clip0_1_25605)">
<path d="M18.999 7.135C18.943 8.135 18.122 8.804 17.69 9.646C17.507 10.146 17.069 10.446 16.757 10.898C16.47 11.189 16.2052 11.5012 15.965 11.832C16.007 12.065 16.255 12.132 16.397 12.299C16.715 12.49 16.75 12.851 17.027 13.069C17.189 13.069 17.189 13.31 17.366 13.282C17.7235 13.6793 18.0543 14.0999 18.356 14.541C18.4005 14.7047 18.4915 14.8519 18.618 14.965C18.865 15.325 19.07 15.708 19.324 16.076C19.36 16.486 19.707 16.76 19.813 17.143C19.968 17.343 20.031 17.589 20.174 17.794C20.392 18.275 20.541 18.777 20.802 19.237C20.8175 19.2871 20.8193 19.3404 20.8071 19.3914C20.795 19.4424 20.7694 19.4893 20.733 19.527C20.633 19.604 20.555 19.463 20.443 19.485C19.8603 19.2587 19.3011 18.9764 18.773 18.642C18.221 18.197 17.613 17.879 17.073 17.412C16.861 17.355 16.773 17.112 16.573 17.012C16.051 16.688 15.633 16.221 15.102 15.917C14.861 15.734 14.621 15.557 14.38 15.366C14.197 15.343 14.133 15.132 13.956 15.066C13.556 14.825 13.2 14.493 12.796 14.266C12.761 14.322 12.796 14.407 12.761 14.466C12.492 14.729 12.561 15.132 12.373 15.422C12.365 15.838 12.073 16.144 11.955 16.511C11.623 17.105 11.333 17.711 10.986 18.3C10.6267 18.9743 10.169 19.5914 9.628 20.131C9.49156 20.2861 9.3287 20.4158 9.147 20.514C9.069 20.492 8.956 20.506 8.935 20.408C8.858 20.26 8.956 20.033 8.85 19.898C8.90142 19.6804 8.9276 19.4576 8.928 19.234L8.893 19.134C8.9 18.823 9.055 18.561 8.993 18.243C9.07324 18.0394 9.12115 17.8244 9.135 17.606C9.24113 17.333 9.31268 17.0478 9.348 16.757C9.43952 16.5761 9.47603 16.3724 9.453 16.171C9.524 15.987 9.539 15.771 9.728 15.633C9.757 15.512 9.728 15.393 9.749 15.265C9.942 14.685 10.175 14.127 10.323 13.532C10.323 13.49 10.281 13.475 10.252 13.469C9.8533 13.497 9.45275 13.4829 9.057 13.427C8.42211 13.4137 7.78993 13.34 7.169 13.207C6.90431 13.1993 6.64317 13.144 6.398 13.044C6.24371 13.0722 6.08463 13.0577 5.938 13.002C5.648 12.861 5.294 12.882 5.004 12.726C4.785 12.754 4.63 12.612 4.432 12.592C4.241 12.605 4.132 12.444 4 12.337V12.272C4.38344 11.8656 4.88213 11.5864 5.429 11.472C5.929 11.318 6.489 11.304 7.013 11.197C7.345 11.141 7.706 11.232 8.039 11.176C8.639 11.19 9.22 11.29 9.813 11.304C10.003 11.3585 10.1974 11.396 10.394 11.416L10.386 11.332L9.828 10.568C9.54698 10.109 9.30127 9.62927 9.093 9.133C8.965 8.977 9.086 8.743 8.987 8.573C8.98 8.496 9.043 8.438 9.079 8.373C9.199 8.323 9.333 8.407 9.453 8.329C9.813 8.415 10.147 8.542 10.507 8.612C10.8925 8.74523 11.2586 8.92882 11.596 9.158C12.0643 9.39707 12.486 9.71815 12.841 10.106C12.8876 10.1421 12.9421 10.1666 13 10.1773C13.0579 10.1881 13.1176 10.1849 13.174 10.168C13.274 10.154 13.294 10.035 13.386 9.999C13.824 9.723 14.32 9.568 14.75 9.263C14.928 9.086 15.21 9.063 15.316 8.824C15.4433 8.7505 15.5772 8.68922 15.716 8.641C15.9588 8.45435 16.2137 8.28398 16.479 8.131C16.6141 8.10716 16.7409 8.04896 16.847 7.962C17.286 7.722 17.747 7.523 18.162 7.247C18.255 7 18.531 7.056 18.728 7C18.828 7.022 18.962 7.008 19.004 7.134" fill="#0097D9"/>
<path d="M8.512 13.9714C8.654 14.0714 8.647 14.2714 8.774 14.3714L8.837 14.8084L8.519 15.2714C8.31082 15.4013 8.06907 15.4673 7.82375 15.461C7.57842 15.4548 7.34032 15.3767 7.139 15.2364C7.04046 15.143 6.9688 15.0249 6.93151 14.8944C6.89422 14.7638 6.89266 14.6257 6.927 14.4944L7.076 14.0944C7.161 14.0374 7.276 14.0234 7.33 13.9244C7.54577 13.8352 7.77568 13.7851 8.009 13.7764C8.179 13.8344 8.433 13.7404 8.509 13.9764" fill="#F8BD0D"/>
<path d="M7.465 16.5552C7.593 16.5552 7.685 16.6472 7.805 16.6252C7.974 16.6892 7.954 16.8942 8.13 16.9432C8.25808 17.2145 8.35535 17.4993 8.42 17.7922C8.371 17.9622 8.512 18.0612 8.463 18.2172L8.512 18.2442C8.52218 18.4146 8.49558 18.5851 8.434 18.7442C8.43084 19.0292 8.34504 19.3071 8.187 19.5442C8.094 19.6002 8.052 19.7632 7.925 19.7352C7.7 19.8062 7.678 20.1452 7.402 20.1032C7.225 20.2362 6.984 20.1592 6.772 20.1662C6.652 20.1032 6.482 20.1172 6.397 20.0112C6.18203 19.9087 5.98406 19.7738 5.81 19.6112C5.74 19.4552 5.577 19.3852 5.556 19.2112C5.619 18.9972 5.486 18.8062 5.542 18.5952L5.5 18.2402L5.633 17.6322C5.86 17.5122 5.797 17.2322 6.023 17.1522C6.165 16.8262 6.503 16.7522 6.766 16.5932C6.866 16.5712 6.984 16.6292 7.066 16.5372C7.207 16.5162 7.341 16.6642 7.466 16.5512" fill="#E86421"/>
<path d="M66.304 19.1426H27.082V19.3436H66.304V19.1426Z" fill="#1E120D"/>
<path fill-rule="evenodd" clip-rule="evenodd" d="M23.7721 8.15039C23.4671 8.15039 23.2181 8.52539 23.2181 8.98139C23.2033 9.09192 23.2177 9.2044 23.26 9.30759C23.3023 9.41078 23.371 9.50105 23.4591 9.56939C23.6521 9.65139 23.9011 9.83739 23.9011 10.4004C23.9003 10.6481 23.8378 10.8917 23.719 11.1091C23.6003 11.3266 23.4291 11.5109 23.2211 11.6454C23.1331 11.7384 23.1651 12.0334 23.3011 12.0604C23.7196 11.8558 24.0656 11.5281 24.2926 11.1213C24.5196 10.7145 24.6168 10.248 24.5711 9.78439C24.5711 8.61939 24.1061 8.15039 23.7721 8.15039ZM25.5311 8.15039C25.2251 8.15039 24.9761 8.52539 24.9761 8.98139C24.9616 9.09258 24.9766 9.20564 25.0196 9.30921C25.0626 9.41277 25.1321 9.50319 25.2211 9.57139C25.4141 9.65339 25.6631 9.83939 25.6631 10.4024C25.662 10.6504 25.599 10.8942 25.4797 11.1116C25.3604 11.3291 25.1887 11.5132 24.9801 11.6474C24.8921 11.7404 24.9241 12.0354 25.0611 12.0624C25.4794 11.8576 25.825 11.5298 26.0518 11.123C26.2786 10.7162 26.3757 10.2499 26.3301 9.78639C26.3301 8.62139 25.8641 8.15239 25.5351 8.15239" fill="#1E120D"/>
<path fill-rule="evenodd" clip-rule="evenodd" d="M27.1523 9.19545C27.5813 9.19545 27.8083 9.51745 27.8353 10.0665C27.8753 10.5745 27.9423 11.5785 27.9423 12.3555V16.6935C27.9501 16.7687 27.9421 16.8447 27.9189 16.9167C27.8956 16.9887 27.8576 17.0551 27.8073 17.1115C27.7569 17.168 27.6953 17.2133 27.6265 17.2447C27.5576 17.276 27.483 17.2926 27.4073 17.2935V17.5605C27.7953 17.5605 28.1703 17.5215 28.5583 17.5215C28.9463 17.5215 29.3583 17.5605 29.7633 17.5605V17.2935C29.3483 17.2265 29.2413 16.9865 29.2413 16.5305V11.3305C29.2413 10.0985 29.2803 8.78645 29.2943 8.06445H29.0273C28.4772 8.48351 27.8339 8.76345 27.1523 8.88045V9.19545Z" fill="#1E120D"/>
<path fill-rule="evenodd" clip-rule="evenodd" d="M33.3534 16.6795C33.0822 16.8422 32.7692 16.9215 32.4534 16.9075C32.3134 16.9051 32.1753 16.875 32.0469 16.819C31.9186 16.7631 31.8025 16.6823 31.7054 16.5815C31.6084 16.4806 31.5322 16.3615 31.4812 16.2311C31.4302 16.1007 31.4055 15.9615 31.4084 15.8215C31.4022 15.6582 31.4312 15.4954 31.4934 15.3442C31.5556 15.1929 31.6496 15.0569 31.769 14.9452C31.8884 14.8335 32.0304 14.7487 32.1854 14.6967C32.3404 14.6446 32.5048 14.6265 32.6674 14.6435C32.8829 14.6479 33.0976 14.6703 33.3094 14.7105L33.3534 16.6795ZM31.0194 13.4125C31.149 13.1795 31.3429 12.9886 31.578 12.8627C31.8132 12.7368 32.0795 12.6812 32.3454 12.7025C33.2564 12.7025 33.3084 13.5025 33.3084 14.2295C33.1214 14.2295 32.8944 14.1885 32.6804 14.1885C31.4614 14.1885 30.1094 14.7375 30.1094 16.1565C30.1226 16.3787 30.1804 16.5959 30.2793 16.7953C30.3782 16.9947 30.5162 17.1721 30.6851 17.3171C30.8539 17.4621 31.0502 17.5716 31.2623 17.6392C31.4743 17.7068 31.6978 17.7311 31.9194 17.7105C32.4697 17.6621 32.9882 17.4312 33.3924 17.0545C33.5047 17.2425 33.6609 17.4003 33.8476 17.5146C34.0343 17.6288 34.246 17.6961 34.4644 17.7105L35.4644 16.9105L35.2644 16.7105C35.173 16.7386 35.0787 16.7561 34.9834 16.7625C34.6894 16.7625 34.5834 16.5895 34.5834 15.9745V15.5015C34.5974 14.7375 34.6374 14.0415 34.6374 13.5605C34.6374 12.2205 33.6204 11.9005 32.4284 11.9005C31.844 11.8964 31.2622 11.9775 30.7014 12.1415V13.4125H31.0194Z" fill="#1E120D"/>
<path fill-rule="evenodd" clip-rule="evenodd" d="M45.4772 8.6067C44.3946 8.24598 43.2602 8.06525 42.1192 8.0717C41.4624 8.02685 40.8034 8.11759 40.1832 8.33827C39.5629 8.55895 38.9947 8.90486 38.5138 9.35449C38.033 9.80411 37.6498 10.3479 37.388 10.9519C37.1262 11.5559 36.9915 12.2074 36.9922 12.8657C36.9922 15.2757 38.7462 17.7377 42.7362 17.7377C43.6143 17.7229 44.4887 17.6201 45.3462 17.4307L45.7622 15.9447L45.3462 15.7717C45.0635 16.215 44.6703 16.5771 44.2054 16.8225C43.7405 17.068 43.2197 17.1883 42.6942 17.1717C41.5832 17.1717 38.8522 16.5287 38.8522 12.7527C38.8522 10.5027 39.8162 8.6297 42.1452 8.6297C42.7484 8.58237 43.3511 8.72689 43.8673 9.04262C44.3834 9.35835 44.7866 9.82912 45.0192 10.3877H45.5812L45.4772 8.6067Z" fill="#1E120D"/>
<path fill-rule="evenodd" clip-rule="evenodd" d="M49.6658 16.6795C49.3946 16.842 49.0816 16.9213 48.7658 16.9075C48.6258 16.9049 48.4878 16.8748 48.3595 16.8188C48.2312 16.7628 48.1152 16.682 48.0182 16.5812C47.9211 16.4803 47.8449 16.3613 47.7939 16.231C47.7428 16.1006 47.718 15.9615 47.7208 15.8215C47.7146 15.6582 47.7436 15.4954 47.8058 15.3442C47.868 15.193 47.962 15.0569 48.0814 14.9452C48.2008 14.8335 48.3428 14.7487 48.4978 14.6967C48.6528 14.6446 48.8172 14.6265 48.9798 14.6435C49.1956 14.6479 49.4107 14.6703 49.6228 14.7105L49.6658 16.6795ZM47.3358 13.4125C47.4651 13.1795 47.6589 12.9886 47.8938 12.8626C48.1288 12.7367 48.3951 12.6812 48.6608 12.7025C49.5728 12.7025 49.6258 13.5025 49.6258 14.2295C49.4388 14.2295 49.2108 14.1885 48.9958 14.1885C47.7768 14.1885 46.4258 14.7375 46.4258 16.1565C46.4391 16.3784 46.4968 16.5954 46.5955 16.7945C46.6942 16.9937 46.8319 17.171 47.0004 17.3159C47.169 17.4609 47.3649 17.5705 47.5766 17.6383C47.7883 17.706 48.0114 17.7306 48.2328 17.7105C48.7832 17.6624 49.3018 17.4315 49.7058 17.0545C49.8177 17.2425 49.9737 17.4005 50.1603 17.5148C50.3469 17.6291 50.5584 17.6963 50.7768 17.7105L51.7818 16.9105L51.5818 16.7105C51.4904 16.7386 51.3961 16.7561 51.3008 16.7625C51.0058 16.7625 50.9008 16.5895 50.9008 15.9745V15.5015C50.9138 14.7375 50.9538 14.0415 50.9538 13.5605C50.9538 12.2205 49.9358 11.9005 48.7448 11.9005C48.1608 11.8963 47.5793 11.9775 47.0188 12.1415V13.4125H47.3358Z" fill="#1E120D"/>
<path fill-rule="evenodd" clip-rule="evenodd" d="M53.7124 11.9004C53.1737 12.2099 52.591 12.4354 51.9844 12.5694V12.8374C52.11 12.8388 52.232 12.8796 52.3332 12.9541C52.4344 13.0285 52.5096 13.1329 52.5484 13.2524C52.7041 13.8325 52.7669 14.4336 52.7344 15.0334V16.6934C52.7344 17.1484 52.5864 17.2154 52.2644 17.2934V17.5604C52.6264 17.5484 52.9894 17.5214 53.3504 17.5214C53.7504 17.5214 54.1504 17.5604 54.5504 17.5604V17.2934C54.2434 17.2134 54.0284 17.1464 54.0284 16.6934V14.7384C54.0284 13.6384 53.9754 12.4624 53.9754 11.9004H53.7124ZM52.5864 10.3204C52.5751 10.4685 52.6088 10.6166 52.683 10.7454C52.7572 10.8741 52.8684 10.9775 53.0023 11.042C53.1361 11.1066 53.2863 11.1293 53.4332 11.1071C53.5802 11.085 53.717 11.0191 53.8259 10.9181C53.9348 10.817 54.0108 10.6854 54.0438 10.5406C54.0768 10.3957 54.0654 10.2442 54.011 10.106C53.9566 9.96767 53.8618 9.84899 53.739 9.7654C53.6161 9.68181 53.471 9.6372 53.3224 9.63737C53.2291 9.63336 53.1359 9.64789 53.0483 9.68014C52.9606 9.71238 52.8802 9.76169 52.8118 9.82522C52.7433 9.88874 52.6882 9.96521 52.6495 10.0502C52.6108 10.1352 52.5893 10.227 52.5864 10.3204Z" fill="#1E120D"/>
<path fill-rule="evenodd" clip-rule="evenodd" d="M54.9288 17.5629C55.2228 17.5499 55.5028 17.5229 55.7978 17.5229C56.1458 17.5229 56.5078 17.5499 56.8558 17.5629V17.2949C56.6818 17.2689 56.5758 17.2019 56.5758 16.9879C56.6019 16.8115 56.6653 16.6427 56.7618 16.4929L57.4848 15.5149L58.2078 16.5459C58.3079 16.6824 58.3808 16.8369 58.4228 17.0009C58.4193 17.0737 58.3903 17.143 58.341 17.1967C58.2917 17.2504 58.2251 17.2851 58.1528 17.2949V17.5629C58.5528 17.5499 58.9438 17.5229 59.3468 17.5229C59.7498 17.5229 60.1358 17.5499 60.5388 17.5629V17.2949C60.1951 17.1447 59.9021 16.8985 59.6948 16.5859L58.2488 14.5719L59.3848 13.1259C59.6379 12.7271 60.0298 12.4363 60.4848 12.3099V12.0479C60.1368 12.0609 59.7748 12.0869 59.4268 12.0869C59.0788 12.0869 58.7178 12.0609 58.3578 12.0479V12.3149C58.5698 12.3949 58.7308 12.4889 58.7308 12.7439C58.7047 12.906 58.6356 13.0583 58.5308 13.1849L57.8758 14.0559L57.1398 13.0559C57.0432 12.9325 56.987 12.7823 56.9788 12.6259C56.9788 12.4259 57.0998 12.3989 57.2588 12.3189V12.0479C56.8588 12.0609 56.4588 12.0869 56.0588 12.0869C55.6588 12.0869 55.2408 12.0609 54.8398 12.0479V12.3149C55.145 12.4285 55.4043 12.6393 55.5778 12.9149L57.1178 15.0039L55.8178 16.6649C55.6159 16.9801 55.2999 17.2052 54.9358 17.2929L54.9288 17.5629Z" fill="#1E120D"/>
<path fill-rule="evenodd" clip-rule="evenodd" d="M63.821 16.6795C63.55 16.8423 63.2369 16.9216 62.921 16.9075C62.6393 16.901 62.3716 16.783 62.1766 16.5794C61.9817 16.3759 61.8754 16.1033 61.881 15.8215C61.875 15.6582 61.9041 15.4955 61.9664 15.3443C62.0287 15.1932 62.1227 15.0572 62.242 14.9456C62.3614 14.8339 62.5033 14.7491 62.6582 14.697C62.8132 14.6449 62.9775 14.6267 63.14 14.6435C63.3562 14.648 63.5716 14.6704 63.784 14.7105L63.821 16.6795ZM61.491 13.4125C61.6208 13.1796 61.8148 12.9889 62.0499 12.863C62.2849 12.7372 62.5512 12.6815 62.817 12.7025C63.728 12.7025 63.782 13.5025 63.782 14.2295C63.594 14.2295 63.366 14.1885 63.151 14.1885C61.934 14.1885 60.582 14.7375 60.582 16.1565C60.5952 16.3784 60.6528 16.5953 60.7514 16.7945C60.85 16.9936 60.9876 17.1709 61.1561 17.3159C61.3245 17.4608 61.5204 17.5704 61.732 17.6382C61.9436 17.706 62.1667 17.7306 62.388 17.7105C62.9387 17.6623 63.4576 17.4314 63.862 17.0545C63.9737 17.2425 64.1295 17.4005 64.316 17.5148C64.5024 17.6291 64.7138 17.6963 64.932 17.7105L65.938 16.9105L65.738 16.7105C65.6467 16.7386 65.5524 16.7561 65.457 16.7625C65.164 16.7625 65.057 16.5895 65.057 15.9745V15.5015C65.07 14.7375 65.111 14.0415 65.111 13.5605C65.111 12.2205 64.093 11.9005 62.903 11.9005C62.3177 11.8965 61.7349 11.9776 61.173 12.1415V13.4125H61.491Z" fill="#1E120D"/>
<path fill-rule="evenodd" clip-rule="evenodd" d="M65.6896 8.15039C65.3846 8.15039 65.1346 8.52539 65.1346 8.98139C65.1199 9.09201 65.1345 9.20455 65.177 9.30775C65.2195 9.41094 65.2883 9.50117 65.3766 9.56939C65.5706 9.65139 65.8186 9.83739 65.8186 10.4004C65.8175 10.6485 65.7544 10.8924 65.6349 11.1098C65.5154 11.3273 65.3434 11.5114 65.1346 11.6454C65.0476 11.7384 65.0786 12.0334 65.2166 12.0604C65.6348 11.8555 65.9803 11.5277 66.207 11.1209C66.4336 10.7141 66.5305 10.2478 66.4846 9.78439C66.4846 8.61939 66.0186 8.15039 65.6896 8.15039ZM67.4486 8.15039C67.1486 8.15039 66.8956 8.52539 66.8956 8.98139C66.8807 9.09183 66.895 9.20425 66.9371 9.30743C66.9792 9.41061 67.0477 9.50094 67.1356 9.56939C67.3286 9.65139 67.5786 9.83739 67.5786 10.4004C67.5775 10.6484 67.5145 10.8922 67.3952 11.1096C67.2759 11.3271 67.1042 11.5112 66.8956 11.6454C66.8066 11.7384 66.8376 12.0334 66.9746 12.0604C67.3931 11.8558 67.7389 11.5281 67.9657 11.1212C68.1926 10.7144 68.2895 10.2479 68.2436 9.78439C68.2436 8.61939 67.7776 8.15039 67.4486 8.15039Z" fill="#1E120D"/>
</g>
<defs>
<clipPath id="clip0_1_25605">
<rect width="64" height="18" fill="white" transform="translate(4 5)"/>
</clipPath>
</defs>
</svg>
