<svg width="43" height="28" viewBox="0 0 43 28" fill="none" xmlns="http://www.w3.org/2000/svg">
<rect width="43" height="28" rx="4" fill="white"/>
<path fill-rule="evenodd" clip-rule="evenodd" d="M21.286 20.6375C22.2101 19.7923 22.948 18.7639 23.4529 17.6179C23.9578 16.4718 24.2185 15.2332 24.2185 13.9809C24.2185 12.7286 23.9578 11.49 23.4529 10.3439C22.948 9.19789 22.2101 8.16952 21.286 7.3243C19.6526 5.8273 17.5168 4.99785 15.3012 5C12.9193 5 10.635 5.9462 8.95075 7.63045C7.26651 9.31469 6.32031 11.599 6.32031 13.9809C6.32031 16.3628 7.26651 18.6471 8.95075 20.3313C10.635 22.0156 12.9193 22.9618 15.3012 22.9618C17.5168 22.9639 19.6526 22.1345 21.286 20.6375Z" fill="#0097D9"/>
<path fill-rule="evenodd" clip-rule="evenodd" d="M27.2741 5C25.0588 4.99791 22.9234 5.82737 21.2903 7.3243C20.9671 7.62028 20.6659 7.93953 20.3893 8.27948H22.1935C22.4405 8.58301 22.6677 8.90206 22.8738 9.23467H19.71C19.5202 9.54269 19.3487 9.86164 19.1964 10.1899H23.3822C23.5268 10.5007 23.6533 10.8196 23.7611 11.145H18.8185C18.7151 11.4585 18.6286 11.7774 18.5596 12.1002H24.0201C24.3574 13.68 24.268 15.3211 23.7611 16.855H18.8185C18.926 17.1803 19.0522 17.4993 19.1964 17.8101H23.3822C23.2307 18.1385 23.0595 18.4575 22.8696 18.7653H19.71C19.9154 19.0982 20.1423 19.4172 20.3893 19.7205H22.1935C21.9171 20.0599 21.6166 20.3792 21.2946 20.6757C22.9276 22.1726 25.063 23.0021 27.2783 23C29.6602 23 31.9445 22.0538 33.6288 20.3696C35.313 18.6853 36.2592 16.401 36.2592 14.0191C36.2592 11.6372 35.313 9.3529 33.6288 7.66865C31.9445 5.98441 29.6602 5.03821 27.2783 5.03821" fill="#E40620"/>
<path fill-rule="evenodd" clip-rule="evenodd" d="M34.9985 18.9868C34.9987 18.9298 35.0159 18.8741 35.0477 18.8267C35.0796 18.7794 35.1247 18.7426 35.1775 18.7209C35.2302 18.6992 35.2883 18.6936 35.3442 18.7049C35.4001 18.7162 35.4514 18.7437 35.4917 18.7841C35.532 18.8246 35.5594 18.876 35.5704 18.932C35.5815 18.9879 35.5757 19.0459 35.5538 19.0986C35.5319 19.1513 35.4949 19.1963 35.4475 19.228C35.4 19.2597 35.3443 19.2766 35.2872 19.2766C35.2492 19.2766 35.2116 19.2691 35.1765 19.2545C35.1414 19.2399 35.1095 19.2186 35.0827 19.1916C35.0559 19.1647 35.0347 19.1328 35.0202 19.0976C35.0058 19.0625 34.9984 19.0248 34.9985 18.9868ZM35.2872 19.2076C35.3309 19.2078 35.3737 19.195 35.4101 19.1709C35.4466 19.1468 35.4751 19.1124 35.4919 19.0721C35.5088 19.0317 35.5133 18.9873 35.5049 18.9444C35.4965 18.9015 35.4756 18.8621 35.4448 18.8311C35.4139 18.8001 35.3746 18.779 35.3317 18.7704C35.2889 18.7618 35.2444 18.7661 35.204 18.7828C35.1636 18.7995 35.1291 18.8278 35.1048 18.8641C35.0805 18.9004 35.0675 18.9431 35.0675 18.9868C35.0674 19.0158 35.073 19.0445 35.0839 19.0712C35.0949 19.098 35.1111 19.1224 35.1315 19.1429C35.1519 19.1634 35.1762 19.1797 35.2029 19.1908C35.2296 19.2019 35.2583 19.2076 35.2872 19.2076ZM35.2479 19.1142H35.1885V18.8595H35.2946C35.317 18.8572 35.3395 18.8617 35.3594 18.8722C35.3694 18.8795 35.3775 18.8891 35.3831 18.9002C35.3886 18.9113 35.3914 18.9235 35.3912 18.9359C35.3914 18.95 35.3874 18.9638 35.3796 18.9755C35.3719 18.9872 35.3607 18.9964 35.3477 19.0017L35.3944 19.1142H35.3286L35.2904 19.0134H35.2469V18.9699H35.2798C35.2921 18.9713 35.3045 18.9694 35.3159 18.9645C35.3203 18.9613 35.3239 18.9569 35.3263 18.9519C35.3287 18.9469 35.3299 18.9414 35.3297 18.9359C35.3297 18.9307 35.3285 18.9255 35.3261 18.9209C35.3237 18.9163 35.3202 18.9123 35.3159 18.9094C35.3033 18.9062 35.2902 18.9062 35.2777 18.9094H35.2469V19.1216L35.2479 19.1142Z" fill="#E40620"/>
<path fill-rule="evenodd" clip-rule="evenodd" d="M33.1143 15.9282C33.1145 15.8712 33.1316 15.8155 33.1634 15.7682C33.1953 15.7208 33.2404 15.684 33.2932 15.6623C33.346 15.6406 33.404 15.635 33.4599 15.6463C33.5158 15.6576 33.5672 15.6851 33.6074 15.7256C33.6477 15.766 33.6751 15.8174 33.6861 15.8734C33.6972 15.9293 33.6914 15.9873 33.6695 16.04C33.6477 16.0927 33.6107 16.1377 33.5632 16.1694C33.5158 16.2011 33.46 16.218 33.4029 16.218C33.3649 16.218 33.3273 16.2105 33.2922 16.1959C33.2571 16.1813 33.2253 16.16 33.1984 16.1331C33.1716 16.1061 33.1504 16.0742 33.1359 16.039C33.1215 16.0039 33.1141 15.9662 33.1143 15.9282ZM33.4029 16.149C33.4466 16.1492 33.4894 16.1364 33.5259 16.1123C33.5623 16.0882 33.5908 16.0538 33.6076 16.0135C33.6245 15.9731 33.629 15.9287 33.6206 15.8858C33.6122 15.8429 33.5913 15.8035 33.5605 15.7725C33.5296 15.7415 33.4903 15.7204 33.4475 15.7118C33.4046 15.7032 33.3602 15.7075 33.3198 15.7242C33.2794 15.7409 33.2448 15.7692 33.2205 15.8055C33.1962 15.8418 33.1832 15.8845 33.1832 15.9282C33.1831 15.9572 33.1887 15.9859 33.1997 16.0126C33.2106 16.0394 33.2268 16.0638 33.2472 16.0843C33.2676 16.1048 33.2919 16.1211 33.3186 16.1322C33.3453 16.1433 33.374 16.149 33.4029 16.149ZM33.3637 16.0556H33.3042V15.8009H33.4104C33.4327 15.7986 33.4553 15.8031 33.4751 15.8136C33.4851 15.821 33.4931 15.8306 33.4987 15.8416C33.5042 15.8527 33.507 15.8649 33.5069 15.8773C33.5074 15.8914 33.5035 15.9054 33.4957 15.9172C33.4879 15.929 33.4766 15.938 33.4634 15.9431L33.5101 16.0556H33.4443L33.4061 15.9495H33.3637V15.9113H33.3966C33.4084 15.9144 33.4208 15.9144 33.4327 15.9113C33.4372 15.908 33.441 15.9037 33.4436 15.8987C33.4462 15.8938 33.4475 15.8882 33.4475 15.8826C33.4473 15.8773 33.4458 15.8722 33.4432 15.8676C33.4406 15.863 33.437 15.859 33.4327 15.8561C33.4204 15.8535 33.4078 15.8535 33.3955 15.8561H33.3637V16.0683V16.0556Z" fill="white"/>
<path fill-rule="evenodd" clip-rule="evenodd" d="M14.1863 16.2186H13.0772L13.7363 12.7162L12.2175 16.2186H11.2061L11.0214 12.7374L10.3602 16.2175H9.35303L10.2138 11.6644H11.9448L12.036 14.4833L13.2566 11.6644H15.0608L14.1863 16.2186Z" fill="white"/>
<path fill-rule="evenodd" clip-rule="evenodd" d="M26.5903 16.1731C26.3316 16.2504 26.0632 16.2908 25.7932 16.293C25.2254 16.293 24.9155 16.0064 24.9155 15.48C24.9166 15.3685 24.9276 15.2574 24.9484 15.1478L25.0153 14.7859L25.0673 14.493L25.582 11.6656H26.6847L26.5256 12.5147H27.0912L26.9395 13.4147H26.3706L26.0787 14.9664C26.0674 15.0166 26.061 15.0677 26.0596 15.1192C26.0596 15.3102 26.1743 15.3941 26.4385 15.3941C26.5391 15.3972 26.6396 15.3854 26.7368 15.359L26.5903 16.1731Z" fill="white"/>
<path fill-rule="evenodd" clip-rule="evenodd" d="M29.8279 12.5454C29.7877 12.5273 29.7457 12.5138 29.7026 12.505L29.6071 12.4838C29.57 12.4772 29.5323 12.474 29.4946 12.4743C29.1306 12.4743 28.8684 12.6377 28.5288 13.076L28.6264 12.5146H27.6214L26.9453 16.2175H28.0555C28.4534 13.9527 28.6233 13.5568 29.156 13.5568C29.1953 13.5568 29.242 13.5568 29.2961 13.5653L29.4256 13.5929L29.8279 12.5454Z" fill="white"/>
<path fill-rule="evenodd" clip-rule="evenodd" d="M22.1897 13.6851C22.1897 14.1532 22.4508 14.4748 23.0441 14.7167C23.4994 14.9035 23.5748 14.9577 23.5748 15.1253C23.5748 15.3567 23.3742 15.4607 22.9305 15.4607C22.5899 15.4598 22.2511 15.4105 21.9244 15.3143L21.7705 16.1633L21.8204 16.1718L22.0263 16.21C22.0921 16.2217 22.1897 16.2323 22.3192 16.2429C22.5856 16.2631 22.7926 16.2737 22.938 16.2737C24.1224 16.2737 24.67 15.8821 24.67 15.0373C24.6779 14.8004 24.6032 14.5681 24.4588 14.3801C24.3144 14.1922 24.1092 14.0602 23.8783 14.0067C23.4081 13.8199 23.354 13.7785 23.354 13.6055C23.354 13.406 23.5397 13.3031 23.9027 13.3031C24.1724 13.3067 24.4416 13.3251 24.7093 13.3582L24.8696 12.5018C24.5419 12.4585 24.212 12.4341 23.8815 12.4285C22.6259 12.4285 22.1908 12.9974 22.195 13.6809" fill="white"/>
<path fill-rule="evenodd" clip-rule="evenodd" d="M17.7953 16.2181H16.873L16.8942 15.835C16.7438 15.99 16.5615 16.1103 16.3599 16.1877C16.1583 16.265 15.9422 16.2975 15.7268 16.2828C15.5919 16.29 15.4571 16.2687 15.3309 16.2205C15.2048 16.1722 15.0902 16.098 14.9946 16.0027C14.8989 15.9074 14.8244 15.793 14.7757 15.667C14.7271 15.5411 14.7054 15.4063 14.7121 15.2714C14.7121 14.3693 15.4296 13.8439 16.6618 13.8439C16.8129 13.8452 16.9638 13.8547 17.1139 13.8726C17.1403 13.7949 17.1549 13.7137 17.1574 13.6317C17.1574 13.3865 16.9632 13.2952 16.4453 13.2952C16.1351 13.2951 15.826 13.3307 15.524 13.4013L15.3702 13.4406L15.2704 13.464L15.4253 12.6319C15.8571 12.507 16.3037 12.441 16.7531 12.4355C17.7082 12.4355 18.2113 12.8113 18.2113 13.5213C18.2048 13.7684 18.1746 14.0143 18.1211 14.2557L17.8887 15.5686L17.8505 15.8042L17.8218 15.9931L17.8027 16.1215L17.7953 16.2181ZM16.9855 14.5688C16.9031 14.5585 16.8202 14.5536 16.7371 14.5539C16.1088 14.5539 15.7904 14.7429 15.7904 15.1175C15.788 15.1695 15.7969 15.2213 15.8163 15.2696C15.8358 15.3178 15.8654 15.3613 15.9032 15.397C15.9409 15.4328 15.986 15.46 16.0352 15.4768C16.0844 15.4935 16.1367 15.4995 16.1884 15.4943C16.3022 15.4878 16.4135 15.4584 16.5158 15.408C16.618 15.3575 16.709 15.287 16.7833 15.2007C16.8577 15.1143 16.914 15.0139 16.9487 14.9053C16.9834 14.7967 16.9959 14.6823 16.9855 14.5688Z" fill="white"/>
<path fill-rule="evenodd" clip-rule="evenodd" d="M21.4366 16.1333C21.0661 16.2341 20.6838 16.2844 20.2999 16.2829C19.0592 16.2829 18.4129 15.7141 18.4129 14.6241C18.3884 14.3505 18.4197 14.0748 18.505 13.8137C18.5904 13.5527 18.7279 13.3117 18.9093 13.1054C19.0906 12.8991 19.312 12.7319 19.56 12.6138C19.808 12.4957 20.0775 12.4294 20.3519 12.4187C20.5413 12.3952 20.7334 12.4127 20.9154 12.47C21.0974 12.5272 21.265 12.6228 21.4069 12.7504C21.5488 12.878 21.6616 13.0345 21.7378 13.2095C21.8139 13.3844 21.8516 13.5736 21.8484 13.7644C21.843 14.0737 21.797 14.3809 21.7115 14.6782H19.506C19.4993 14.7168 19.4957 14.7558 19.4954 14.7949C19.4954 15.2195 19.8244 15.4434 20.4687 15.4434C20.8647 15.4438 21.2568 15.364 21.6212 15.2089L21.4366 16.1333ZM20.8454 13.93C20.8518 13.8525 20.855 13.7899 20.855 13.7411C20.8583 13.6728 20.8464 13.6046 20.8201 13.5415C20.7938 13.4784 20.7538 13.422 20.703 13.3763C20.6522 13.3305 20.5919 13.2967 20.5264 13.2772C20.4609 13.2577 20.3919 13.253 20.3243 13.2635C19.972 13.2635 19.7194 13.5001 19.6164 13.9278L20.8454 13.93Z" fill="white"/>
<path fill-rule="evenodd" clip-rule="evenodd" d="M33.2788 14.5425C33.2568 14.8018 33.1832 15.0542 33.0624 15.2848C32.9415 15.5154 32.7759 15.7195 32.5751 15.8852C32.3743 16.0509 32.1425 16.1748 31.8932 16.2497C31.6438 16.3245 31.3821 16.3489 31.1232 16.3212C30.8899 16.3491 30.6533 16.3246 30.4306 16.2495C30.2079 16.1744 30.0048 16.0506 29.8359 15.8872C29.6671 15.7237 29.5368 15.5247 29.4545 15.3046C29.3723 15.0844 29.3401 14.8487 29.3604 14.6146C29.3404 14.3216 29.3831 14.0277 29.4856 13.7524C29.5881 13.4771 29.748 13.2269 29.9548 13.0182C30.1615 12.8096 30.4103 12.6473 30.6846 12.5423C30.9589 12.4373 31.2524 12.3919 31.5456 12.4092C31.7749 12.3868 32.0062 12.4138 32.2241 12.4886C32.4419 12.5634 32.6411 12.6842 32.8082 12.8427C32.9753 13.0013 33.1063 13.1939 33.1925 13.4075C33.2786 13.6211 33.3178 13.8507 33.3074 14.0808C33.3126 14.2342 33.303 14.3877 33.2788 14.5393M32.1357 14.0659C32.1357 13.6785 31.9797 13.3124 31.5244 13.3124C30.9587 13.3124 30.6074 13.9874 30.6074 14.586C30.6074 15.089 30.8484 15.4255 31.2442 15.4191C31.4614 15.3717 31.6592 15.2598 31.8116 15.0981C31.9641 14.9364 32.0641 14.7323 32.0986 14.5127C32.1232 14.3665 32.1353 14.2184 32.1347 14.0702" fill="white"/>
</svg>
