<svg width="43" height="28" viewBox="0 0 43 28" fill="none" xmlns="http://www.w3.org/2000/svg">
<rect width="43" height="28" rx="4" fill="white"/>
<path d="M14.5309 22.901V21.7084C14.5374 21.6158 14.5255 21.5228 14.496 21.4347C14.4665 21.3467 14.4199 21.2653 14.3589 21.1953C14.2979 21.1253 14.2237 21.068 14.1405 21.0267C14.0573 20.9854 13.9668 20.9609 13.8742 20.9546C13.8425 20.9525 13.8107 20.9525 13.779 20.9546C13.6479 20.9465 13.517 20.9736 13.3999 21.033C13.2828 21.0924 13.1836 21.182 13.1127 21.2925C13.0482 21.185 12.9559 21.0969 12.8455 21.0375C12.7351 20.978 12.6108 20.9494 12.4855 20.9546C12.3758 20.9493 12.2667 20.9729 12.169 21.023C12.0712 21.0731 11.9884 21.148 11.9287 21.2401V21.0051H11.5156V22.9086H11.9325V21.8617C11.9165 21.7447 11.9476 21.6261 12.019 21.5321C12.0904 21.438 12.1962 21.3761 12.3132 21.3601C12.3414 21.3572 12.3698 21.3572 12.3979 21.3601C12.672 21.3601 12.811 21.539 12.811 21.8607V22.9172H13.2279V21.856C13.2125 21.7383 13.2445 21.6194 13.3168 21.5253C13.389 21.4313 13.4957 21.3698 13.6134 21.3544C13.6399 21.3515 13.6667 21.3515 13.6933 21.3544C13.9789 21.3544 14.1102 21.5333 14.1102 21.855V22.9115L14.5309 22.901ZM20.7032 20.9974H20.0237V20.4216H19.6068V20.9974H19.2261V21.3782H19.6115V22.2519C19.6115 22.6935 19.7829 22.9553 20.2711 22.9553C20.4538 22.9559 20.6329 22.9051 20.788 22.8087L20.669 22.4546C20.5582 22.5209 20.4325 22.5579 20.3035 22.5622C20.1046 22.5622 20.0294 22.4346 20.0294 22.2443V21.3782H20.7042L20.7032 20.9974ZM24.2249 20.9499C24.1241 20.9469 24.0245 20.9712 23.9364 21.0201C23.8483 21.069 23.775 21.1407 23.7242 21.2278V20.9974H23.315V22.901H23.728V21.836C23.728 21.5219 23.8632 21.3467 24.1249 21.3467C24.2136 21.3457 24.3016 21.3622 24.3838 21.3953L24.5104 20.9974C24.416 20.9637 24.3165 20.9463 24.2163 20.946L24.2249 20.9499ZM18.8949 21.1488C18.661 21.0096 18.3921 20.9406 18.1201 20.9499C17.6394 20.9499 17.3253 21.1802 17.3253 21.558C17.3253 21.8683 17.5557 22.0587 17.9811 22.1177L18.1801 22.1463C18.4056 22.1777 18.5132 22.2414 18.5132 22.3442C18.5132 22.4918 18.3628 22.5755 18.0801 22.5755C17.8532 22.5814 17.6308 22.5114 17.4481 22.3766L17.2502 22.6983C17.4908 22.8665 17.7791 22.9529 18.0725 22.9448C18.6207 22.9448 18.9386 22.6859 18.9386 22.3252C18.9386 21.9645 18.6883 21.816 18.2724 21.7541L18.0735 21.7256C17.8945 21.7018 17.7518 21.6666 17.7518 21.5352C17.7518 21.4039 17.8869 21.3125 18.1134 21.3125C18.3228 21.3153 18.5279 21.3716 18.7093 21.4762L18.8949 21.1488ZM29.9661 20.9537C29.8654 20.9509 29.7658 20.9753 29.6777 21.0242C29.5897 21.073 29.5163 21.1447 29.4654 21.2316V21.0013H29.0571V22.9048H29.4702V21.836C29.4702 21.5219 29.6053 21.3467 29.8671 21.3467C29.9554 21.3457 30.0431 21.3622 30.125 21.3953L30.2526 20.9974C30.1581 20.9638 30.0587 20.9464 29.9585 20.946L29.9661 20.9537ZM24.6427 21.9473C24.638 22.0732 24.6581 22.1988 24.702 22.3169C24.7459 22.435 24.8126 22.5433 24.8983 22.6356C24.9841 22.7278 25.0872 22.8023 25.2017 22.8547C25.3163 22.9071 25.4401 22.9365 25.5659 22.941C25.5964 22.941 25.6259 22.941 25.6554 22.941C25.9036 22.9543 26.1477 22.8734 26.3388 22.7145L26.1408 22.3813C25.9977 22.4898 25.8236 22.5495 25.644 22.5517C25.4921 22.5383 25.3507 22.4684 25.2478 22.3559C25.1448 22.2434 25.0877 22.0965 25.0877 21.944C25.0877 21.7915 25.1448 21.6445 25.2478 21.5321C25.3507 21.4196 25.4921 21.3497 25.644 21.3363C25.8236 21.3385 25.9977 21.3982 26.1408 21.5066L26.3388 21.1735C26.1472 21.0154 25.9035 20.9346 25.6554 20.947C25.5296 20.9397 25.4036 20.9572 25.2846 20.9987C25.1657 21.0402 25.056 21.1047 24.962 21.1886C24.868 21.2725 24.7915 21.3742 24.7369 21.4877C24.6823 21.6012 24.6506 21.7244 24.6437 21.8502C24.6437 21.8807 24.6437 21.9102 24.6437 21.9397L24.6427 21.9473ZM28.5127 21.9473V21.0013H28.0996V21.2316C28.0292 21.1414 27.9384 21.0691 27.8347 21.0208C27.7309 20.9725 27.6172 20.9495 27.5028 20.9537C27.2447 20.9617 26.9999 21.0698 26.8202 21.2552C26.6404 21.4406 26.5399 21.6886 26.5399 21.9469C26.5399 22.2051 26.6404 22.4531 26.8202 22.6385C26.9999 22.8239 27.2447 22.9321 27.5028 22.94C27.6172 22.9445 27.731 22.9216 27.8348 22.8732C27.9386 22.8249 28.0294 22.7525 28.0996 22.6621V22.8925H28.5127V21.9473ZM26.9746 21.9473C26.9804 21.7979 27.0447 21.6568 27.1535 21.5542C27.2622 21.4516 27.4069 21.3958 27.5564 21.3987C27.7059 21.4017 27.8483 21.4631 27.953 21.5699C28.0577 21.6766 28.1163 21.8202 28.1163 21.9697C28.1163 22.1192 28.0577 22.2628 27.953 22.3695C27.8483 22.4763 27.7059 22.5377 27.5564 22.5407C27.4069 22.5436 27.2622 22.4878 27.1535 22.3852C27.0447 22.2826 26.9804 22.1415 26.9746 21.9921C26.9746 21.9768 26.9746 21.9626 26.9746 21.9473ZM21.9882 20.9537C21.8554 20.9519 21.7236 20.9768 21.6006 21.0269C21.4776 21.0769 21.3659 21.1511 21.2721 21.2451C21.1783 21.339 21.1042 21.4508 21.0543 21.5739C21.0045 21.697 20.9797 21.8288 20.9816 21.9615C20.9836 22.0943 21.0121 22.2253 21.0655 22.3469C21.1189 22.4685 21.1961 22.5781 21.2926 22.6693C21.3891 22.7605 21.5029 22.8315 21.6272 22.878C21.7516 22.9245 21.8841 22.9456 22.0167 22.94C22.3023 22.955 22.5833 22.863 22.8048 22.6821L22.6068 22.3766C22.4497 22.5023 22.2551 22.5719 22.0538 22.5746C21.9168 22.5871 21.7803 22.5456 21.6736 22.4588C21.5669 22.3719 21.4984 22.2468 21.4828 22.1101H22.8933V21.9511C22.906 21.8253 22.8921 21.6982 22.8525 21.5781C22.8129 21.458 22.7486 21.3475 22.6636 21.2539C22.5787 21.1602 22.475 21.0854 22.3593 21.0343C22.2436 20.9833 22.1184 20.9571 21.992 20.9575L21.9882 20.9537ZM21.9882 21.323C22.1128 21.3214 22.233 21.3688 22.3231 21.4549C22.4131 21.541 22.4658 21.6591 22.4698 21.7836H21.4761C21.4832 21.656 21.54 21.5363 21.6343 21.45C21.7286 21.3638 21.8528 21.3178 21.9806 21.322L21.9882 21.323ZM32.3408 21.9511V20.2379H31.9429V21.2306C31.8728 21.1404 31.7822 21.0681 31.6786 21.0197C31.575 20.9714 31.4614 20.9484 31.3471 20.9527C31.2141 20.9486 31.0816 20.9712 30.9575 21.0193C30.8334 21.0674 30.7202 21.1398 30.6247 21.2325C30.5291 21.3251 30.4532 21.436 30.4013 21.5585C30.3494 21.6811 30.3227 21.8128 30.3227 21.9459C30.3227 22.079 30.3494 22.2107 30.4013 22.3333C30.4532 22.4558 30.5291 22.5667 30.6247 22.6593C30.7202 22.752 30.8334 22.8245 30.9575 22.8725C31.0816 22.9206 31.2141 22.9432 31.3471 22.9391C31.4614 22.9436 31.5751 22.9207 31.6787 22.8724C31.7824 22.824 31.8729 22.7516 31.9429 22.6612V22.8925H32.3455L32.3408 21.9511ZM33.0299 22.625C33.0556 22.6242 33.0812 22.6287 33.1051 22.6383C33.128 22.6478 33.1489 22.6613 33.1669 22.6783C33.1844 22.6956 33.1986 22.7159 33.2088 22.7383C33.2185 22.7615 33.2235 22.7864 33.2235 22.8116C33.2235 22.8367 33.2185 22.8616 33.2088 22.8848C33.1983 22.907 33.1841 22.9273 33.1669 22.9448C33.1489 22.9615 33.1279 22.9747 33.1051 22.9838C33.0814 22.9943 33.0558 22.9998 33.0299 23C32.9922 22.9996 32.9555 22.9886 32.9238 22.9682C32.8922 22.9478 32.8669 22.9189 32.8509 22.8848C32.8413 22.8616 32.8363 22.8367 32.8363 22.8116C32.8363 22.7864 32.8413 22.7615 32.8509 22.7383C32.8609 22.7158 32.8751 22.6954 32.8928 22.6783C32.9108 22.6613 32.9318 22.6478 32.9547 22.6383C32.9803 22.6278 33.008 22.6232 33.0356 22.625H33.0299ZM33.0299 22.96C33.0495 22.9601 33.0689 22.9562 33.087 22.9486C33.1042 22.9409 33.1197 22.9299 33.1327 22.9162C33.1574 22.8892 33.1711 22.8539 33.1711 22.8173C33.1711 22.7806 33.1574 22.7453 33.1327 22.7183C33.1197 22.7046 33.1042 22.6936 33.087 22.6859C33.0689 22.6783 33.0495 22.6744 33.0299 22.6745C33.01 22.6744 32.9902 22.6783 32.9718 22.6859C32.9541 22.6937 32.938 22.7046 32.9242 22.7183C32.8995 22.7453 32.8858 22.7806 32.8858 22.8173C32.8858 22.8539 32.8995 22.8892 32.9242 22.9162C32.938 22.9299 32.9541 22.9409 32.9718 22.9486C32.9919 22.9572 33.0137 22.9611 33.0356 22.96H33.0299ZM33.0413 22.724C33.0601 22.723 33.0786 22.7288 33.0936 22.7402C33.0997 22.745 33.1045 22.7513 33.1075 22.7584C33.1105 22.7656 33.1116 22.7734 33.1108 22.7811C33.1113 22.7877 33.1103 22.7944 33.108 22.8006C33.1057 22.8069 33.1021 22.8125 33.0975 22.8173C33.0859 22.8278 33.0712 22.8342 33.0556 22.8353L33.1127 22.901H33.067L33.0118 22.8353H32.9937V22.901H32.9566V22.7259L33.0413 22.724ZM32.9975 22.7573V22.8049H33.0413C33.049 22.8077 33.0574 22.8077 33.0651 22.8049C33.0665 22.8023 33.0672 22.7993 33.0672 22.7963C33.0672 22.7933 33.0665 22.7904 33.0651 22.7878C33.0665 22.785 33.0673 22.7819 33.0673 22.7787C33.0673 22.7756 33.0665 22.7725 33.0651 22.7697C33.0574 22.7668 33.049 22.7668 33.0413 22.7697L32.9975 22.7573ZM30.8084 21.9511C30.8143 21.804 30.8776 21.665 30.9848 21.5641C31.0919 21.4631 31.2344 21.4082 31.3816 21.4111C31.5289 21.414 31.6691 21.4746 31.7722 21.5797C31.8752 21.6849 31.933 21.8263 31.933 21.9735C31.933 22.1208 31.8752 22.2621 31.7722 22.3673C31.6691 22.4724 31.5289 22.533 31.3816 22.5359C31.2344 22.5388 31.0919 22.4839 30.9848 22.3829C30.8776 22.282 30.8143 22.143 30.8084 21.9959C30.8084 21.9816 30.8084 21.9664 30.8084 21.9511ZM16.8561 21.9511V20.9993H16.4507V21.2297C16.3805 21.1394 16.2899 21.0671 16.1863 21.0188C16.0827 20.9705 15.9691 20.9475 15.8548 20.9518C15.5967 20.9597 15.3519 21.0679 15.1722 21.2533C14.9924 21.4387 14.8919 21.6867 14.8919 21.9449C14.8919 22.2032 14.9924 22.4512 15.1722 22.6366C15.3519 22.822 15.5967 22.9302 15.8548 22.9381C15.9691 22.9426 16.0828 22.9198 16.1864 22.8714C16.2901 22.8231 16.3807 22.7507 16.4507 22.6602V22.8925H16.8637L16.8561 21.9511ZM15.319 21.9511C15.3254 21.8118 15.3862 21.6806 15.4881 21.5854C15.5901 21.4903 15.7253 21.4388 15.8647 21.4421C16.0042 21.4453 16.1368 21.503 16.2343 21.6027C16.3317 21.7025 16.3863 21.8364 16.3863 21.9759C16.3863 22.1154 16.3317 22.2493 16.2343 22.349C16.1368 22.4488 16.0042 22.5065 15.8647 22.5097C15.7253 22.5129 15.5901 22.4615 15.4881 22.3663C15.3862 22.2712 15.3254 22.1399 15.319 22.0006C15.318 21.9841 15.318 21.9676 15.319 21.9511Z" fill="#1F191A"/>
<path d="M25.0158 6.5293H18.7578V17.7747H25.0158V6.5293Z" fill="#FF5F00"/>
<path d="M19.1594 12.1537C19.1581 11.0704 19.4034 10.0011 19.8767 9.02664C20.35 8.05222 21.0388 7.19829 21.891 6.52955C20.836 5.70043 19.5689 5.18486 18.2347 5.04176C16.9005 4.89867 15.5529 5.13382 14.346 5.72035C13.1391 6.30688 12.1216 7.22112 11.4097 8.35859C10.6978 9.49606 10.3203 10.8109 10.3203 12.1527C10.3203 13.4946 10.6978 14.8094 11.4097 15.9469C12.1216 17.0843 13.1391 17.9986 14.346 18.5851C15.5529 19.1716 16.9005 19.4068 18.2347 19.2637C19.5689 19.1206 20.836 18.605 21.891 17.7759C21.0391 17.1074 20.3504 16.2537 19.8771 15.2797C19.4039 14.3056 19.1584 13.2366 19.1594 12.1537Z" fill="#FF0015"/>
<path d="M33.461 12.1536C33.461 13.4956 33.0834 14.8105 32.3714 15.948C31.6594 17.0855 30.6417 17.9998 29.4346 18.5862C28.2276 19.1727 26.8798 19.4077 25.5455 19.2644C24.2112 19.1211 22.9442 18.6052 21.8892 17.7758C22.7407 17.1066 23.4292 16.2528 23.9026 15.2787C24.3759 14.3046 24.6219 13.2357 24.6219 12.1526C24.6219 11.0696 24.3759 10.0007 23.9026 9.02661C23.4292 8.05252 22.7407 7.19866 21.8892 6.52946C22.9442 5.70005 24.2112 5.18421 25.5455 5.0409C26.8798 4.89759 28.2276 5.13259 29.4346 5.71905C30.6417 6.3055 31.6594 7.21974 32.3714 8.35727C33.0834 9.49479 33.461 10.8097 33.461 12.1517V12.1536Z" fill="#FF9200"/>
<path d="M32.7786 16.583V16.3527H32.8737V16.3051H32.6377V16.3527H32.7386V16.583H32.7786ZM33.2373 16.583V16.3051H33.1659L33.0822 16.504L32.9994 16.3051H32.9356V16.583H32.987V16.3746L33.0641 16.5554H33.1183L33.1954 16.3746V16.5849L33.2373 16.583Z" fill="#FF9200"/>
</svg>
