<svg width="68" height="28" viewBox="0 0 68 28" fill="none" xmlns="http://www.w3.org/2000/svg">
<rect width="68" height="28" rx="4" fill="white"/>
<g clip-path="url(#clip0_1_25483)">
<path d="M7.90757 15.8394C8.68018 15.8392 9.43539 15.6092 10.0777 15.1784C10.72 14.7475 11.2206 14.1353 11.5161 13.419C11.8116 12.7028 11.8888 11.9147 11.738 11.1544C11.5871 10.3941 11.215 9.69579 10.6686 9.14771C10.1222 8.59963 9.42614 8.22641 8.66837 8.07525C7.91059 7.92408 7.12515 8.00176 6.41138 8.29847C5.6976 8.59517 5.08753 9.09757 4.65831 9.74214C4.22909 10.3867 4 11.1445 4 11.9197C4 12.4345 4.10108 12.9443 4.29747 13.42C4.49385 13.8956 4.7817 14.3277 5.14456 14.6917C5.50743 15.0557 5.9382 15.3444 6.41228 15.5413C6.88637 15.7383 7.39447 15.8396 7.90757 15.8394Z" fill="#0082CA"/>
<path d="M7.28614 12.2083H7.95793C8.11704 12.1941 8.27719 12.2199 8.42384 12.2834C8.48972 12.3221 8.54472 12.377 8.58366 12.4429C8.6226 12.5087 8.64421 12.5834 8.64646 12.66C8.64726 12.7392 8.62907 12.8175 8.59341 12.8882C8.55775 12.9589 8.50568 13.0199 8.44157 13.0662C8.28036 13.1432 8.10078 13.173 7.92345 13.1522H7.28614V12.2083ZM7.28614 10.6547H7.83874C8.01549 10.6358 8.19423 10.6553 8.36277 10.712C8.42368 10.7487 8.47394 10.8007 8.50851 10.863C8.54308 10.9253 8.56076 10.9955 8.55977 11.0668C8.56084 11.1344 8.54658 11.2014 8.51809 11.2627C8.48959 11.324 8.4476 11.378 8.39528 11.4206C8.24758 11.5022 8.07772 11.534 7.91065 11.5116H7.29008L7.28614 10.6547ZM6.375 9.96285V13.8826H8.12341C8.47154 13.9202 8.82261 13.8462 9.12616 13.6711C9.26728 13.5772 9.38429 13.4512 9.46766 13.3033C9.55102 13.1554 9.59838 12.9898 9.60587 12.8201C9.61066 12.5862 9.53091 12.3585 9.38135 12.179C9.23178 11.9995 9.02253 11.8804 8.79224 11.8436V11.8318C8.98939 11.7963 9.16784 11.6925 9.2964 11.5384C9.42497 11.3842 9.49545 11.1897 9.49554 10.9887C9.49972 10.8155 9.45728 10.6442 9.37269 10.4931C9.28811 10.342 9.16449 10.2165 9.01485 10.1299C8.73947 9.98726 8.42888 9.92754 8.12046 9.95791L6.375 9.96285Z" fill="white"/>
<path d="M61.8901 19.8381H64V9.95477H61.8901V19.8381ZM58.7321 19.8381H60.843V9.95477H58.7321V19.8381ZM53.1047 15.2918C53.1766 14.4566 53.5351 13.7648 54.468 13.7648C55.4008 13.7648 55.65 14.4991 55.6884 15.2918H53.1047ZM57.7993 16.545C57.8646 15.5338 57.6027 14.5285 57.0527 13.6788C56.739 13.2682 56.3344 12.9364 55.871 12.7097C55.4075 12.4829 54.8979 12.3674 54.3823 12.3722C52.1167 12.3722 50.8362 14.1156 50.8362 16.2761C50.8027 16.7637 50.8722 17.2529 51.0402 17.7117C51.2082 18.1705 51.4709 18.5885 51.8111 18.9384C52.1512 19.2883 52.5612 19.5621 53.0141 19.742C53.467 19.9219 53.9527 20.0038 54.4394 19.9824C55.1956 20.0039 55.9364 19.7658 56.5395 19.3076C57.1426 18.8493 57.5717 18.1983 57.756 17.4621L55.8046 17.3139C55.7806 17.6368 55.6323 17.9376 55.3911 18.1527C55.1499 18.3678 54.8347 18.4803 54.5123 18.4663C54.3135 18.4674 54.1167 18.4262 53.9349 18.3455C53.7531 18.2648 53.5904 18.1464 53.4575 17.998C53.3246 17.8496 53.2245 17.6747 53.1639 17.4847C53.1033 17.2947 53.0834 17.094 53.1057 16.8958L53.1195 16.5361L57.7993 16.545ZM47.9363 16.7901C47.9608 17.16 47.8966 17.5304 47.7491 17.8703C47.6621 18.0418 47.5313 18.1871 47.37 18.2913C47.2087 18.3955 47.0227 18.4548 46.8311 18.4633C45.7821 18.4633 45.6678 17.1241 45.6678 16.3325C45.6678 15.4528 45.7111 13.8686 46.9168 13.8686C47.8792 13.8686 47.9363 15.0783 47.9363 15.7849V16.7901ZM50.0462 19.843V9.95971H47.9363V13.2993C47.7469 12.9913 47.4764 12.7418 47.1547 12.5783C46.833 12.4147 46.4725 12.3434 46.113 12.3722C43.9883 12.3722 43.4426 14.5189 43.4426 16.2613C43.4426 17.9602 44.0169 19.9774 46.0697 19.9774C46.4832 19.98 46.8881 19.8593 47.2331 19.6305C47.5781 19.4018 47.8475 19.0753 48.0072 18.6926H48.0368V19.8302L50.0462 19.843ZM40.4994 16.622C40.5566 17.1114 40.4561 17.6064 40.2128 18.0344C40.1004 18.2166 39.9442 18.3674 39.7584 18.4731C39.5727 18.5788 39.3634 18.636 39.1499 18.6392C39.023 18.6464 38.896 18.626 38.7776 18.5796C38.6592 18.5332 38.5522 18.4618 38.4637 18.3702C38.3752 18.2786 38.3074 18.169 38.2649 18.0488C38.2223 17.9286 38.206 17.8007 38.2171 17.6736C38.2171 16.6082 39.6946 16.4214 40.4994 16.3344V16.622ZM42.7965 19.8341C42.6912 19.4793 42.6427 19.1101 42.6527 18.74V15.3293C42.6527 14.4517 42.7246 13.6491 41.9779 13.0393C41.2975 12.5766 40.4874 12.3446 39.6661 12.3772C38.1304 12.3772 36.4076 12.896 36.1919 14.6681L38.1885 14.8539C38.1885 14.1344 38.7796 13.7885 39.4513 13.7885C39.6115 13.7794 39.7717 13.8056 39.9206 13.8654C40.0695 13.9252 40.2035 14.017 40.3132 14.1344C40.4811 14.426 40.5466 14.7656 40.4994 15.099V15.272C39.5227 15.3085 38.5539 15.4635 37.6143 15.7335C37.1446 15.8711 36.7317 16.1569 36.4368 16.5486C36.1418 16.9403 35.9807 17.417 35.9772 17.9079C35.9708 18.2019 36.0276 18.4938 36.1438 18.7638C36.26 19.0338 36.4329 19.2755 36.6506 19.4724C36.8683 19.6693 37.1258 19.8167 37.4055 19.9047C37.6852 19.9928 37.9805 20.0192 38.2713 19.9824C38.739 20.0025 39.2033 19.8934 39.6135 19.6668C40.0236 19.4402 40.3638 19.1049 40.5969 18.6975C40.5803 19.0794 40.6134 19.4618 40.6954 19.8351L42.7965 19.8341ZM28.886 19.8341H30.0345C30.1235 19.4339 30.284 19.0531 30.5083 18.7104C30.6842 19.1103 30.978 19.4467 31.3501 19.6741C31.7222 19.9015 32.1548 20.0091 32.5897 19.9824C34.7863 19.9824 35.5447 18.0956 35.5447 16.1803C35.5447 14.4517 34.9133 12.3772 32.832 12.3772C32.4628 12.3551 32.0955 12.445 31.7779 12.6352C31.4602 12.8254 31.207 13.107 31.0511 13.4436H30.994V9.95675H28.886V19.8341ZM31.0245 15.7148C31.0245 14.9369 31.1683 13.828 32.1878 13.828C33.3501 13.828 33.3501 15.355 33.3501 16.1763C33.3501 16.967 33.3501 18.4949 32.1592 18.4949C31.9804 18.4963 31.8043 18.4505 31.6487 18.362C31.4931 18.2735 31.3634 18.1455 31.2727 17.9909C31.0785 17.6137 30.9938 17.1894 31.0284 16.7663L31.0245 15.7148ZM25.5645 16.622C25.6219 17.1116 25.5211 17.6067 25.2769 18.0344C25.1648 18.2166 25.0088 18.3676 24.8232 18.4733C24.6376 18.579 24.4284 18.6361 24.215 18.6392C24.088 18.6465 23.961 18.6263 23.8425 18.5799C23.7239 18.5336 23.6167 18.4622 23.5282 18.3706C23.4396 18.279 23.3717 18.1693 23.3291 18.0491C23.2865 17.9288 23.2702 17.8008 23.2812 17.6736C23.2812 16.6082 24.7588 16.4214 25.5645 16.3344V16.622ZM27.8616 19.8341C27.7564 19.4793 27.7078 19.1101 27.7178 18.74V15.3293C27.7178 14.4517 27.7897 13.6491 27.043 13.0393C26.3626 12.5766 25.5525 12.3446 24.7312 12.3772C23.1956 12.3772 21.4727 12.896 21.257 14.6681L23.2527 14.8539C23.2527 14.1344 23.8437 13.7885 24.5165 13.7885C24.6765 13.7793 24.8365 13.8056 24.9853 13.8653C25.1341 13.9251 25.2679 14.017 25.3774 14.1344C25.546 14.4257 25.6119 14.7655 25.5645 15.099V15.272C24.5875 15.3084 23.6184 15.4634 22.6784 15.7335C22.2088 15.8711 21.7958 16.1569 21.5009 16.5486C21.206 16.9403 21.0448 17.417 21.0413 17.9079C21.0348 18.2023 21.0918 18.4947 21.2082 18.765C21.3246 19.0353 21.4979 19.2773 21.716 19.4743C21.9342 19.6714 22.1921 19.8188 22.4723 19.9067C22.7525 19.9945 23.0482 20.0207 23.3394 19.9833C23.807 20.0029 24.271 19.8934 24.6811 19.6669C25.0911 19.4404 25.4314 19.1055 25.665 18.6985C25.6474 19.0804 25.6805 19.463 25.7635 19.8361L27.8616 19.8341ZM20.2523 12.1251C19.6544 10.4183 18.2468 9.81245 16.525 9.81245C15.6314 9.77143 14.7535 10.0585 14.0555 10.6199C13.7157 10.901 13.4437 11.2556 13.2598 11.6571C13.0759 12.0587 12.9849 12.4967 12.9937 12.9385C12.9937 15.099 14.7165 15.6179 16.4669 15.9777C17.0707 16.1081 18.1907 16.2662 18.1907 17.0866C18.1907 17.9069 17.314 18.154 16.654 18.154C16.2003 18.216 15.7398 18.1076 15.3609 17.8496C14.982 17.5917 14.7115 17.2024 14.6013 16.7565L12.4766 17.2457C12.9218 19.1759 14.6013 19.9824 16.4531 19.9824C17.4675 20.034 18.4709 19.7507 19.3096 19.1759C19.6869 18.8828 19.9928 18.5073 20.204 18.0781C20.4153 17.6488 20.5265 17.1769 20.5291 16.6981C20.529 16.2312 20.4103 15.772 20.1844 15.3637C19.9585 14.9555 19.6327 14.6117 19.2377 14.3647C18.4347 13.9408 17.5651 13.6583 16.6668 13.5296C16.1073 13.4307 15.2464 13.2558 15.2464 12.5353C15.2464 11.7723 15.9921 11.6132 16.6097 11.6132C16.9846 11.5722 17.3617 11.6674 17.6725 11.8816C17.9834 12.0958 18.2074 12.4147 18.3039 12.7804L20.2523 12.1251Z" fill="#1E120D"/>
</g>
<defs>
<clipPath id="clip0_1_25483">
<rect width="60" height="18" fill="white" transform="translate(4 5)"/>
</clipPath>
</defs>
</svg>
