<svg width="65" height="28" viewBox="0 0 65 28" fill="none" xmlns="http://www.w3.org/2000/svg">
<rect width="65" height="28" rx="4" fill="#FF0000"/>
<g clip-path="url(#clip0_1_25628)">
<path d="M61.1356 13.5382C61.1535 13.8489 61.125 14.1605 61.0509 14.4628C60.7775 14.3883 60.4937 14.3597 60.211 14.378C59.9587 14.378 59.7073 14.4628 59.455 14.4628V18.6639H58.3628V13.7925C58.9584 13.5841 59.5831 13.4707 60.214 13.4564C60.5246 13.4386 60.8361 13.4669 61.1385 13.5401M53.8315 15.6407H56.3519C56.3622 15.4725 56.3366 15.304 56.2768 15.1464C56.2171 14.9888 56.1246 14.8457 56.0054 14.7265C55.8862 14.6073 55.7431 14.5148 55.5855 14.4551C55.4279 14.3953 55.2594 14.3697 55.0912 14.38C54.3352 14.38 53.9152 14.8002 53.8315 15.6407ZM57.3603 16.5653H53.9094C53.9932 17.4899 54.494 17.9098 55.5062 17.9098C56.1176 17.8892 56.7185 17.745 57.2726 17.486C57.1754 17.8139 57.1188 18.1526 57.1041 18.4943C56.6043 18.7254 56.0587 18.8403 55.5082 18.8305C55.1398 18.8795 54.765 18.8444 54.4121 18.7279C54.0592 18.6113 53.7372 18.4164 53.4704 18.1576C53.2036 17.8989 52.9989 17.5831 52.8716 17.2339C52.7443 16.8847 52.6977 16.5112 52.7354 16.1415C52.7354 14.6284 53.4914 13.4525 55.1711 13.4525C55.4766 13.4222 55.7849 13.4602 56.0739 13.5636C56.3629 13.6671 56.6254 13.8334 56.8423 14.0506C57.0592 14.2678 57.2252 14.5304 57.3282 14.8195C57.4313 15.1087 57.4689 15.4171 57.4382 15.7225C57.4382 16.0587 57.3544 16.3071 57.3544 16.5633M50.8005 17.5717V14.4657C50.5481 14.4657 50.2159 14.3809 49.9606 14.3809C48.8685 14.3809 48.3638 15.0532 48.3638 16.2321C48.3638 17.2405 48.7837 17.9127 49.7083 17.9127C50.0942 17.8907 50.469 17.7753 50.8005 17.5766M51.8926 11.7786V18.6687H50.8843L50.8005 18.0842C50.6568 18.3311 50.4468 18.5328 50.1944 18.6666C49.942 18.8004 49.6572 18.8609 49.3722 18.8412C48.1115 18.8412 47.2716 17.8328 47.2716 16.236C47.221 15.8664 47.2551 15.4902 47.3712 15.1358C47.4874 14.7813 47.6826 14.4579 47.9421 14.19C48.2015 13.9221 48.5185 13.7166 48.8691 13.5892C49.2196 13.4618 49.5945 13.4157 49.9655 13.4544C50.3016 13.4544 50.5501 13.5382 50.8053 13.5382V11.9413C51.1522 11.8043 51.5255 11.747 51.8975 11.7738M46.3519 15.3864V18.6639H45.2549V15.555C45.2549 14.7989 45.0035 14.378 43.9104 14.378C43.659 14.378 43.4067 14.4628 43.0705 14.4628V18.6639H41.9764V13.7925C42.634 13.6055 43.3105 13.4927 43.9932 13.4564C45.7576 13.4564 46.3451 14.2124 46.3451 15.3883M39.7073 17.5737V14.4657C39.456 14.4657 39.2036 14.3809 38.9513 14.3809C37.7753 14.3809 37.2707 15.138 37.2707 16.2321C37.2707 17.2405 37.6915 17.9127 38.6152 17.9127C39.0088 17.9443 39.3996 17.8241 39.7073 17.5766M40.8005 13.7954V18.6668H39.794L39.7093 18.0822C39.5763 18.3195 39.3806 18.5156 39.1437 18.6491C38.9067 18.7826 38.6376 18.8484 38.3657 18.8392C37.0212 18.8392 36.1804 17.8309 36.1804 16.234C36.1326 15.8579 36.1714 15.4759 36.2939 15.1172C36.4164 14.7584 36.6194 14.4324 36.8873 14.1642C37.1552 13.8959 37.4809 13.6925 37.8394 13.5695C38.198 13.4464 38.58 13.4071 38.9562 13.4544C39.5899 13.4354 40.2206 13.5499 40.8073 13.7905M34.9256 17.9078C35.2404 17.9006 35.5521 17.8438 35.8492 17.7393C35.7654 17.9916 35.7654 18.3239 35.6816 18.6639C35.384 18.7678 35.0721 18.8247 34.757 18.8324C34.5296 18.8605 34.2988 18.8364 34.0821 18.7619C33.8654 18.6873 33.6685 18.5644 33.5065 18.4023C33.3444 18.2403 33.2215 18.0435 33.1469 17.8268C33.0724 17.6101 33.0483 17.3792 33.0764 17.1518V11.9413C33.4045 11.8449 33.7431 11.7887 34.0848 11.7738V13.6249H35.8492C35.8492 13.961 35.7654 14.2972 35.7654 14.5495H34.0799V16.9852C34.0799 17.6574 34.416 17.9098 34.9207 17.9098M31.9793 15.3883V18.6658H30.8872V15.555C30.8872 14.7989 30.6358 14.378 29.5427 14.378C29.2913 14.378 28.9581 14.4628 28.6191 14.4628V18.6639H27.5269V13.7925C28.187 13.6185 28.8618 13.506 29.5427 13.4564C31.3938 13.4564 31.9793 14.2124 31.9793 15.3883ZM25.2558 17.5737V14.4657C25.0883 14.4657 24.8359 14.3809 24.4998 14.3809C24.262 14.3727 24.0252 14.4163 23.8059 14.5089C23.5867 14.6014 23.3902 14.7406 23.2303 14.9168C23.0703 15.093 22.9507 15.302 22.8797 15.5291C22.8087 15.7563 22.788 15.9961 22.8192 16.2321C22.8192 17.2405 23.2391 17.9127 24.2475 17.9127C24.4296 17.9284 24.613 17.9067 24.7864 17.8489C24.9598 17.7911 25.1196 17.6984 25.2558 17.5766M26.348 13.7954V18.6668H25.3416V18.0822C25.1824 18.3144 24.9693 18.5046 24.7206 18.6364C24.4718 18.7683 24.1948 18.8379 23.9133 18.8392C22.6535 18.8392 21.729 17.8309 21.729 16.234C21.6823 15.8587 21.722 15.4778 21.8448 15.1201C21.9677 14.7625 22.1706 14.4376 22.438 14.1702C22.7054 13.9028 23.0302 13.7 23.3879 13.5771C23.7455 13.4542 24.1265 13.4146 24.5018 13.4612C25.1367 13.426 25.7709 13.5411 26.3529 13.7973M16.5224 18.5031C16.5301 18.1607 16.5868 17.8211 16.691 17.4947C17.2798 17.7278 17.9089 17.8421 18.5421 17.8309C19.4667 17.8309 19.9704 17.5785 19.9704 16.9901C19.9704 16.4016 19.5505 16.1502 18.6259 15.7293L18.1222 15.5618C17.683 15.4394 17.2965 15.1753 17.0228 14.8106C16.7492 14.4459 16.6038 14.0009 16.6091 13.545C16.6091 12.4528 17.3661 11.6939 18.962 11.6939C19.5598 11.6832 20.1555 11.7684 20.7264 11.9462C20.7259 12.2892 20.6693 12.6299 20.5588 12.9546C20.0412 12.7955 19.5035 12.7105 18.962 12.7023C18.1222 12.7023 17.7023 13.0384 17.7023 13.5431C17.7023 14.0477 18.0374 14.3829 18.7944 14.6352L19.2981 14.8876C20.5588 15.3913 21.0625 15.9797 21.0625 16.9043C21.0625 18.0803 20.2227 18.8373 18.5421 18.8373C17.8531 18.8778 17.1639 18.7629 16.5253 18.5012M11.5682 13.6298C11.5073 13.2519 11.3941 12.8843 11.2321 12.5376L9.5456 9.67225C9.44789 9.45362 9.36394 9.2291 9.29423 9V9.16855C9.08762 9.51074 8.97842 9.90288 8.97842 10.3026C8.97842 10.7023 9.08762 11.0945 9.29423 11.4367L10.554 13.7058C10.7601 14.0483 10.8689 14.4405 10.8689 14.8403C10.8689 15.2401 10.7601 15.6323 10.554 15.9749L10.4702 16.1434C10.464 15.8715 10.3761 15.6077 10.2178 15.3864L9.04579 13.2859L8.28585 12.03C8.12753 11.8092 8.03958 11.5456 8.03352 11.274L7.94973 11.4415C7.74303 11.7839 7.63379 12.1762 7.63379 12.5761C7.63379 12.976 7.74303 13.3683 7.94973 13.7106L9.29423 15.9797C9.45993 16.335 9.5458 16.7223 9.5458 17.1143C9.5458 17.5063 9.45993 17.8936 9.29423 18.2488L9.20947 18.4164C9.13943 18.1874 9.05549 17.9629 8.95811 17.7442L7.27747 14.8827C7.04971 14.5022 6.93325 14.0654 6.94135 13.622C5.17693 14.0419 4 15.0503 4 16.1434C4 17.7393 6.35288 19 9.29423 19C12.1508 19 14.5027 17.7393 14.5027 16.1434C14.5027 15.0503 13.3268 14.0419 11.5624 13.622" fill="white"/>
</g>
<defs>
<clipPath id="clip0_1_25628">
<rect width="57" height="18" fill="white" transform="translate(4 5)"/>
</clipPath>
</defs>
</svg>
