<svg width="63" height="28" viewBox="0 0 63 28" fill="none" xmlns="http://www.w3.org/2000/svg">
<rect width="63" height="28" rx="4" fill="white"/>
<g clip-path="url(#clip0_1_25578)">
<path fill-rule="evenodd" clip-rule="evenodd" d="M17.9685 15.8885C18.1998 16.0871 18.4607 16.2482 18.7419 16.366C18.9883 16.473 19.2535 16.5301 19.5222 16.5339C19.7147 16.5435 19.9035 16.4784 20.0492 16.3523C20.1148 16.2884 20.1661 16.2113 20.1995 16.1262C20.233 16.041 20.2479 15.9496 20.2433 15.8582C20.2406 15.6666 20.1838 15.4796 20.0795 15.3188C19.9014 15.0559 19.6906 14.8168 19.452 14.6073C19.1446 14.329 18.8831 14.0039 18.6772 13.644C18.535 13.3582 18.4629 13.0426 18.4667 12.7234C18.4511 12.39 18.507 12.0571 18.6306 11.7471C18.7543 11.4371 18.9429 11.1572 19.1836 10.9261C19.7218 10.461 20.4192 10.2223 21.1295 10.2601C21.4489 10.2585 21.7673 10.2959 22.0777 10.3715C22.3944 10.4523 22.7013 10.5677 22.9928 10.7156L22.6777 12.6422C22.4623 12.4882 22.2289 12.3612 21.9827 12.2637C21.7766 12.1807 21.5568 12.1369 21.3346 12.1344C21.1771 12.1245 21.0216 12.1736 20.8983 12.272C20.8451 12.322 20.8034 12.3829 20.776 12.4507C20.7487 12.5184 20.7364 12.5912 20.7401 12.6642C20.7401 12.889 20.9437 13.2032 21.3511 13.6068C21.4034 13.6564 21.4419 13.6949 21.4722 13.7252C21.8009 14.0211 22.0752 14.3722 22.2827 14.7628C22.4185 15.079 22.4851 15.4206 22.4781 15.7646C22.4975 16.1341 22.4378 16.5035 22.303 16.8481C22.1682 17.1927 21.9614 17.5045 21.6965 17.7628C21.1046 18.275 20.3367 18.537 19.5552 18.4935C19.1838 18.4961 18.8136 18.4498 18.4543 18.3559C18.1449 18.2802 17.8511 18.1513 17.5859 17.9747L17.9685 15.8885ZM27.5437 16.3812H25.8593C25.86 16.5506 25.7988 16.7145 25.6873 16.8422C25.6296 16.8964 25.5613 16.9382 25.4867 16.965C25.4122 16.9917 25.3329 17.0028 25.2538 16.9977C25.182 17.0036 25.1098 16.9944 25.0418 16.9707C24.9738 16.947 24.9115 16.9093 24.8589 16.8601C24.7628 16.7402 24.7165 16.5879 24.7295 16.4348C24.7295 16.3743 24.7295 16.2972 24.7419 16.194C24.7543 16.0908 24.768 15.9545 24.7887 15.7812H27.7226C27.7557 15.55 27.7777 15.3422 27.7928 15.1564C27.808 14.9706 27.8148 14.7986 27.8148 14.639C27.828 14.3644 27.7813 14.0902 27.678 13.8354C27.5746 13.5807 27.417 13.3515 27.2162 13.1637C26.7661 12.7798 26.186 12.5828 25.5951 12.6133C25.2086 12.5996 24.8243 12.6774 24.4735 12.8402C24.1228 13.0031 23.8153 13.2464 23.5763 13.5504C23.044 14.2713 22.778 15.1545 22.8235 16.0495C22.7774 16.7075 22.9914 17.3573 23.4194 17.8591C23.6491 18.0775 23.9218 18.2456 24.2201 18.3527C24.5185 18.4598 24.8358 18.5036 25.152 18.4812C25.7601 18.5126 26.3582 18.3163 26.8295 17.9307C27.0451 17.7327 27.2192 17.494 27.3418 17.2282C27.4644 16.9625 27.533 16.675 27.5437 16.3825M24.9291 14.8495C24.9656 14.592 25.0597 14.346 25.2043 14.1298C25.259 14.0575 25.3303 13.9996 25.4123 13.961C25.4943 13.9225 25.5844 13.9043 25.6749 13.9082C25.7398 13.9032 25.805 13.9129 25.8655 13.9368C25.9261 13.9606 25.9804 13.9979 26.0245 14.0458C26.1102 14.162 26.1517 14.305 26.1414 14.449C26.1414 14.4931 26.1414 14.5399 26.1414 14.5867C26.1414 14.6334 26.1414 14.7243 26.1235 14.8426L24.9291 14.8495ZM27.9112 18.3201L28.7878 12.777H30.6827L30.5589 13.5518C30.7607 13.2846 31.0144 13.0608 31.3047 12.894C31.5828 12.7383 31.8912 12.6444 32.2089 12.6188L31.9006 14.5729H31.858C31.4782 14.5426 31.0991 14.6394 30.7804 14.8481C30.5138 15.1146 30.3525 15.4684 30.3263 15.8445L29.941 18.3215L27.9112 18.3201ZM32.5997 12.777H34.5924L34.7066 16.1596L35.8914 12.777H37.8827L35.4359 18.3201H33.2988L32.5997 12.777ZM37.3419 18.3201H39.3497L40.2277 12.777H38.2185L37.3419 18.3201ZM40.6226 10.6701C40.6343 11.0314 40.5073 11.3835 40.2676 11.6541C40.1558 11.7806 40.0177 11.8812 39.8629 11.9487C39.7082 12.0162 39.5405 12.0491 39.3717 12.0449C39.247 12.0495 39.1228 12.0273 39.0074 11.9799C38.8921 11.9324 38.7882 11.8607 38.7029 11.7697C38.5298 11.5732 38.4399 11.317 38.4524 11.0555C38.4399 10.6917 38.5675 10.337 38.8089 10.0646C38.9198 9.93715 39.0575 9.83567 39.2121 9.7674C39.3667 9.69914 39.5344 9.66578 39.7034 9.66969C39.8283 9.66451 39.9529 9.68643 40.0686 9.73394C40.1843 9.78145 40.2883 9.85342 40.3735 9.94492C40.5471 10.1454 40.6364 10.4053 40.6226 10.6701ZM43.1671 13.9412H43.2855C43.4301 13.9502 43.5749 13.9263 43.709 13.8715C43.8432 13.8167 43.9632 13.7324 44.0602 13.6247C44.2586 13.3635 44.3563 13.0397 44.3355 12.7123C44.3431 12.6212 44.3316 12.5294 44.3018 12.4429C44.2719 12.3564 44.2243 12.2771 44.1621 12.2101C44.0105 12.0893 43.8185 12.0312 43.6254 12.0477C43.6015 12.0463 43.5777 12.0463 43.5538 12.0477C43.5194 12.0477 43.4905 12.0477 43.4685 12.0477L43.1671 13.9412ZM40.2593 18.3201H42.4694L42.9662 15.1275L43.4644 18.3201H45.8038L44.8281 14.8619C45.3224 14.7514 45.7557 14.456 46.0391 14.0362C46.3325 13.559 46.4763 13.005 46.452 12.4454C46.482 12.149 46.437 11.8499 46.3211 11.5755C46.2052 11.3011 46.0221 11.0602 45.7887 10.8752C45.0414 10.5006 44.2048 10.341 43.3722 10.4142H41.5157L40.2593 18.3201ZM50.9382 16.3825C50.9278 16.6749 50.8594 16.9623 50.737 17.2281C50.6147 17.4939 50.4408 17.7327 50.2254 17.9307C49.7541 18.3163 49.156 18.5126 48.5479 18.4812C48.2317 18.5036 47.9143 18.4598 47.616 18.3527C47.3177 18.2456 47.045 18.0775 46.8153 17.8591C46.3872 17.3573 46.1732 16.7075 46.2194 16.0495C46.1739 15.1545 46.4399 14.2714 46.9722 13.5504C47.2112 13.2464 47.5186 13.0031 47.8694 12.8402C48.2202 12.6774 48.6045 12.5996 48.991 12.6133C49.5818 12.5828 50.1619 12.7798 50.6121 13.1637C50.8129 13.3515 50.9705 13.5807 51.0738 13.8354C51.1772 14.0902 51.2239 14.3644 51.2107 14.639C51.2107 14.7986 51.2024 14.9706 51.1887 15.1564C51.1749 15.3422 51.1515 15.55 51.1185 15.7812H48.1832C48.1639 15.9545 48.1474 16.0922 48.1378 16.194C48.1281 16.2958 48.124 16.3743 48.124 16.4348C48.111 16.5879 48.1573 16.7402 48.2534 16.8601C48.3063 16.9092 48.3689 16.9468 48.4371 16.9705C48.5053 16.9942 48.5777 17.0034 48.6497 16.9977C48.7287 17.0028 48.808 16.9916 48.8825 16.9648C48.9571 16.9381 49.0254 16.8963 49.0832 16.8422C49.1947 16.7145 49.2559 16.5506 49.2552 16.3812L50.9382 16.3825ZM48.3235 14.8495H49.5098C49.5222 14.7325 49.5277 14.6445 49.529 14.5935C49.5304 14.5426 49.529 14.4931 49.529 14.4559C49.5385 14.312 49.4971 14.1692 49.4121 14.0527C49.368 14.0048 49.3137 13.9675 49.2532 13.9437C49.1926 13.9198 49.1274 13.91 49.0625 13.9151C48.972 13.9112 48.8819 13.9293 48.7999 13.9679C48.718 14.0065 48.6466 14.0644 48.5919 14.1367C48.4478 14.3531 48.3538 14.599 48.3167 14.8564M54.7694 14.9802C54.7803 14.8106 54.7461 14.6411 54.6703 14.489C54.64 14.437 54.5959 14.3945 54.543 14.3658C54.4901 14.3372 54.4304 14.3236 54.3703 14.3266C54.1703 14.3266 54.0001 14.4972 53.8598 14.8385C53.7082 15.2434 53.6367 15.6738 53.6492 16.1059C53.6371 16.2752 53.6698 16.4447 53.7442 16.5972C53.7749 16.6473 53.8187 16.688 53.8708 16.7152C53.9229 16.7423 53.9814 16.7548 54.0401 16.7513C54.241 16.7513 54.4144 16.5793 54.5575 16.2367C54.7094 15.8357 54.7813 15.4089 54.7694 14.9802ZM54.2946 18.327L54.3813 17.716C54.1829 17.9465 53.947 18.1419 53.6836 18.294C53.4619 18.4126 53.214 18.4741 52.9625 18.4729C52.7628 18.4811 52.5641 18.4395 52.3844 18.3518C52.2047 18.2641 52.0496 18.1331 51.9332 17.9706C51.6636 17.5485 51.5349 17.0517 51.5657 16.5518C51.5303 15.5767 51.76 14.6103 52.2304 13.7555C52.3776 13.4363 52.6092 13.1635 52.9003 12.9665C53.1914 12.7695 53.5308 12.656 53.8818 12.638C54.1176 12.6327 54.3499 12.6958 54.5506 12.8197C54.7651 12.969 54.9422 13.1659 55.068 13.3949L55.5414 10.4252H57.5341L56.2887 18.3188L54.2946 18.327Z" fill="black"/>
<path d="M17.9685 15.8885C18.1998 16.0871 18.4607 16.2482 18.7419 16.366C18.9883 16.473 19.2535 16.5301 19.5222 16.5339C19.7147 16.5435 19.9035 16.4784 20.0492 16.3523C20.1148 16.2884 20.1661 16.2113 20.1995 16.1262C20.233 16.041 20.2479 15.9496 20.2433 15.8582C20.2406 15.6666 20.1838 15.4796 20.0795 15.3188C19.9014 15.0559 19.6906 14.8168 19.452 14.6073C19.1446 14.329 18.8831 14.0039 18.6772 13.644C18.535 13.3582 18.4629 13.0426 18.4667 12.7234C18.4511 12.39 18.507 12.0571 18.6306 11.7471C18.7543 11.4371 18.9429 11.1572 19.1836 10.9261C19.7218 10.461 20.4192 10.2223 21.1295 10.2601C21.4489 10.2585 21.7673 10.2959 22.0777 10.3715C22.3944 10.4523 22.7013 10.5677 22.9928 10.7156L22.6777 12.6422C22.4623 12.4882 22.2289 12.3612 21.9827 12.2637C21.7766 12.1807 21.5568 12.1369 21.3346 12.1344C21.1771 12.1245 21.0216 12.1736 20.8983 12.272C20.8451 12.322 20.8034 12.3829 20.776 12.4507C20.7487 12.5184 20.7364 12.5912 20.7401 12.6642C20.7401 12.889 20.9437 13.2032 21.3511 13.6068C21.4034 13.6564 21.4419 13.6949 21.4722 13.7252C21.8009 14.0211 22.0752 14.3722 22.2827 14.7628C22.4185 15.079 22.4851 15.4206 22.4781 15.7646C22.4975 16.1341 22.4378 16.5035 22.303 16.8481C22.1682 17.1927 21.9614 17.5045 21.6965 17.7628C21.1046 18.275 20.3367 18.537 19.5552 18.4935C19.1838 18.4961 18.8136 18.4498 18.4543 18.3559C18.1449 18.2802 17.8511 18.1513 17.5859 17.9747L17.9685 15.8885ZM27.5437 16.3812H25.8593C25.86 16.5506 25.7988 16.7145 25.6873 16.8422C25.6296 16.8964 25.5613 16.9382 25.4867 16.965C25.4122 16.9917 25.3329 17.0028 25.2538 16.9977C25.182 17.0036 25.1098 16.9944 25.0418 16.9707C24.9738 16.947 24.9115 16.9093 24.8589 16.8601C24.7628 16.7402 24.7165 16.5879 24.7295 16.4348C24.7295 16.3743 24.7295 16.2972 24.7419 16.194C24.7543 16.0908 24.768 15.9545 24.7887 15.7812H27.7226C27.7557 15.55 27.7777 15.3422 27.7928 15.1564C27.808 14.9706 27.8148 14.7986 27.8148 14.639C27.828 14.3644 27.7813 14.0902 27.678 13.8354C27.5746 13.5807 27.417 13.3515 27.2162 13.1637C26.7661 12.7798 26.186 12.5828 25.5951 12.6133C25.2086 12.5996 24.8243 12.6774 24.4735 12.8402C24.1228 13.0031 23.8153 13.2464 23.5763 13.5504C23.044 14.2713 22.778 15.1545 22.8235 16.0495C22.7774 16.7075 22.9914 17.3573 23.4194 17.8591C23.6491 18.0775 23.9218 18.2456 24.2201 18.3527C24.5185 18.4598 24.8358 18.5036 25.152 18.4812C25.7601 18.5126 26.3582 18.3163 26.8295 17.9307C27.0452 17.7326 27.2195 17.4936 27.3421 17.2276C27.4647 16.9616 27.5332 16.6739 27.5437 16.3812ZM24.9291 14.8495C24.9656 14.592 25.0597 14.346 25.2043 14.1298C25.259 14.0575 25.3303 13.9996 25.4123 13.961C25.4943 13.9225 25.5844 13.9043 25.6749 13.9082C25.7398 13.9032 25.805 13.9129 25.8655 13.9368C25.9261 13.9606 25.9804 13.9979 26.0245 14.0458C26.1102 14.162 26.1517 14.305 26.1414 14.449C26.1414 14.4931 26.1414 14.5399 26.1414 14.5867C26.1414 14.6334 26.1414 14.7243 26.1235 14.8426L24.9291 14.8495ZM27.9112 18.3201L28.7878 12.777H30.6827L30.5589 13.5518C30.7607 13.2846 31.0144 13.0608 31.3047 12.894C31.5828 12.7383 31.8912 12.6444 32.2089 12.6188L31.9006 14.5729H31.858C31.4782 14.5426 31.0991 14.6394 30.7804 14.8481C30.5138 15.1146 30.3525 15.4684 30.3263 15.8445L29.941 18.3215L27.9112 18.3201ZM32.5997 12.777H34.5924L34.7066 16.1596L35.8914 12.777H37.8827L35.4359 18.3201H33.2988L32.5997 12.777ZM37.3419 18.3201H39.3497L40.2277 12.777H38.2185L37.3419 18.3201ZM40.6226 10.6701C40.6343 11.0314 40.5073 11.3835 40.2676 11.6541C40.1558 11.7806 40.0177 11.8812 39.8629 11.9487C39.7082 12.0162 39.5405 12.0491 39.3717 12.0449C39.247 12.0495 39.1228 12.0273 39.0074 11.9799C38.8921 11.9324 38.7882 11.8607 38.7029 11.7697C38.5298 11.5732 38.4399 11.317 38.4524 11.0555C38.4399 10.6917 38.5675 10.337 38.8089 10.0646C38.9198 9.93715 39.0575 9.83567 39.2121 9.7674C39.3667 9.69914 39.5344 9.66578 39.7034 9.66969C39.8283 9.66451 39.9529 9.68643 40.0686 9.73394C40.1843 9.78145 40.2883 9.85342 40.3735 9.94492C40.5468 10.1451 40.636 10.4044 40.6226 10.6688V10.6701ZM43.1671 13.9412H43.2855C43.4301 13.9502 43.5749 13.9263 43.709 13.8715C43.8432 13.8167 43.9632 13.7324 44.0602 13.6247C44.2586 13.3635 44.3563 13.0397 44.3355 12.7123C44.3431 12.6212 44.3316 12.5294 44.3018 12.4429C44.2719 12.3564 44.2243 12.2771 44.1621 12.2101C44.0105 12.0893 43.8185 12.0312 43.6254 12.0477C43.6015 12.0463 43.5777 12.0463 43.5538 12.0477C43.5194 12.0477 43.4905 12.0477 43.4685 12.0477L43.1671 13.9412ZM40.2593 18.3201H42.4694L42.9662 15.1275L43.4644 18.3201H45.8038L44.8281 14.8619C45.3224 14.7514 45.7557 14.456 46.0391 14.0362C46.3325 13.559 46.4763 13.005 46.452 12.4454C46.482 12.149 46.437 11.8499 46.3211 11.5755C46.2052 11.3011 46.0221 11.0602 45.7887 10.8752C45.0414 10.5006 44.2048 10.341 43.3722 10.4142H41.5157L40.2593 18.3201ZM50.9382 16.3825C50.9278 16.6749 50.8594 16.9623 50.737 17.2281C50.6147 17.4939 50.4408 17.7327 50.2254 17.9307C49.7541 18.3163 49.156 18.5126 48.5479 18.4812C48.2317 18.5036 47.9143 18.4598 47.616 18.3527C47.3177 18.2456 47.045 18.0775 46.8153 17.8591C46.3872 17.3573 46.1732 16.7075 46.2194 16.0495C46.1739 15.1545 46.4399 14.2714 46.9722 13.5504C47.2112 13.2464 47.5186 13.0031 47.8694 12.8402C48.2202 12.6774 48.6045 12.5996 48.991 12.6133C49.5818 12.5828 50.1619 12.7798 50.6121 13.1637C50.8129 13.3515 50.9705 13.5807 51.0738 13.8354C51.1772 14.0902 51.2239 14.3644 51.2107 14.639C51.2107 14.7986 51.2024 14.9706 51.1887 15.1564C51.1749 15.3422 51.1515 15.55 51.1185 15.7812H48.1832C48.1639 15.9545 48.1474 16.0922 48.1378 16.194C48.1281 16.2958 48.124 16.3743 48.124 16.4348C48.111 16.5879 48.1573 16.7402 48.2534 16.8601C48.3063 16.9092 48.3689 16.9468 48.4371 16.9705C48.5053 16.9942 48.5777 17.0034 48.6497 16.9977C48.7287 17.0028 48.808 16.9916 48.8825 16.9648C48.9571 16.9381 49.0254 16.8963 49.0832 16.8422C49.1947 16.7145 49.2559 16.5506 49.2552 16.3812L50.9382 16.3825ZM48.3235 14.8495H49.5098C49.5222 14.7325 49.5277 14.6445 49.5291 14.5935C49.5304 14.5426 49.5291 14.4931 49.5291 14.4559C49.5386 14.312 49.4971 14.1692 49.4121 14.0527C49.3681 14.0048 49.3137 13.9675 49.2532 13.9437C49.1926 13.9198 49.1274 13.91 49.0625 13.9151C48.972 13.9112 48.8819 13.9293 48.7999 13.9679C48.718 14.0065 48.6466 14.0644 48.5919 14.1367C48.4512 14.3517 48.3596 14.5951 48.3235 14.8495ZM54.7763 14.9734C54.7872 14.8037 54.753 14.6342 54.6772 14.4821C54.6468 14.4302 54.6028 14.3876 54.5499 14.3589C54.497 14.3303 54.4373 14.3167 54.3772 14.3197C54.1772 14.3197 54.007 14.4903 53.8667 14.8316C53.7151 15.2365 53.6436 15.6669 53.6561 16.099C53.6439 16.2683 53.6767 16.4378 53.7511 16.5903C53.7818 16.6404 53.8256 16.6811 53.8777 16.7083C53.9298 16.7354 53.9883 16.7479 54.0469 16.7445C54.2479 16.7445 54.4213 16.5724 54.5644 16.2298C54.7159 15.8283 54.7875 15.401 54.7749 14.972L54.7763 14.9734ZM54.3015 18.3201L54.3882 17.7091C54.1898 17.9397 53.9539 18.1351 53.6905 18.2871C53.4687 18.4057 53.2209 18.4672 52.9694 18.466C52.7696 18.4742 52.571 18.4326 52.3913 18.3449C52.2116 18.2572 52.0565 18.1262 51.9401 17.9637C51.6705 17.5416 51.5418 17.0448 51.5726 16.5449C51.5372 15.5698 51.7669 14.6034 52.2373 13.7486C52.3845 13.4294 52.6161 13.1566 52.9072 12.9596C53.1983 12.7627 53.5377 12.6491 53.8887 12.6312C54.1245 12.6258 54.3568 12.6889 54.5575 12.8128C54.772 12.9621 54.949 13.159 55.0749 13.388L55.5483 10.4183H57.541L56.2887 18.3188L54.3015 18.3201Z" stroke="#1E120D" stroke-width="0.016" stroke-miterlimit="22.926"/>
<path fill-rule="evenodd" clip-rule="evenodd" d="M10 8C11.1867 8 12.3467 8.35189 13.3334 9.01118C14.3201 9.67047 15.0891 10.6075 15.5433 11.7039C15.9974 12.8003 16.1162 14.0067 15.8847 15.1705C15.6532 16.3344 15.0818 17.4035 14.2426 18.2426C13.4035 19.0818 12.3344 19.6532 11.1705 19.8847C10.0067 20.1162 8.80025 19.9974 7.7039 19.5433C6.60754 19.0891 5.67047 18.3201 5.01118 17.3334C4.35189 16.3467 4 15.1867 4 14C4 12.4087 4.63214 10.8826 5.75736 9.75736C6.88258 8.63214 8.4087 8 10 8Z" fill="black"/>
<path d="M10 20C13.3137 20 16 17.3137 16 14C16 10.6863 13.3137 8 10 8C6.68629 8 4 10.6863 4 14C4 17.3137 6.68629 20 10 20Z" stroke="#1E120D" stroke-width="0.01" stroke-miterlimit="22.926"/>
<mask id="mask0_1_25578" style="mask-type:luminance" maskUnits="userSpaceOnUse" x="4" y="12" width="13" height="4">
<path d="M8.44224 13.9974C8.4417 14.3075 8.5332 14.6109 8.70516 14.8691C8.87712 15.1272 9.12181 15.3285 9.40825 15.4476C9.6947 15.5666 10.01 15.5979 10.3143 15.5376C10.6186 15.4774 10.8981 15.3282 11.1175 15.1089C11.337 14.8897 11.4864 14.6103 11.547 14.3061C11.6075 14.0018 11.5764 13.6865 11.4577 13.4C11.3389 13.1134 11.1378 12.8685 10.8798 12.6964C10.6218 12.5242 10.3185 12.4324 10.0083 12.4327C9.5933 12.433 9.19539 12.598 8.90182 12.8913C8.60824 13.1846 8.44297 13.5824 8.44224 13.9974ZM5.4794 12.2441L6.80738 13.5721H4.02344V14.4226H6.80738L5.4794 15.7519H6.68078L8.43399 13.9974L6.68078 12.2441H5.4794ZM13.3523 12.2441L11.5991 13.9974L13.3578 15.7519H14.5592L13.2299 14.4226H16.0152V13.5721H13.2202L14.5496 12.2441H13.3523Z" fill="white"/>
</mask>
<g mask="url(#mask0_1_25578)">
<path d="M16.0097 12.2441H4.02344V15.7519H16.0097V12.2441Z" fill="url(#paint0_linear_1_25578)"/>
</g>
<mask id="mask1_1_25578" style="mask-type:luminance" maskUnits="userSpaceOnUse" x="8" y="15" width="4" height="5">
<path d="M8.25 17.3352V18.5366L9.57936 17.2073V19.9926H10.4284V17.2073L11.7564 18.538V17.3366L10.0032 15.582L8.25 17.3352Z" fill="white"/>
</mask>
<g mask="url(#mask1_1_25578)">
<path d="M11.7564 15.582H8.25V19.9926H11.7564V15.582Z" fill="url(#paint1_linear_1_25578)"/>
</g>
<mask id="mask2_1_25578" style="mask-type:luminance" maskUnits="userSpaceOnUse" x="8" y="8" width="4" height="5">
<path d="M9.57936 8.00879V10.7927L8.25 9.46475V10.6661L10.0032 12.418L11.7564 10.6648V9.46475L10.4284 10.7927V8.00879H9.57936Z" fill="white"/>
</mask>
<g mask="url(#mask2_1_25578)">
<path d="M11.7564 8.00879H8.25V12.418H11.7564V8.00879Z" fill="url(#paint2_linear_1_25578)"/>
</g>
</g>
<defs>
<linearGradient id="paint0_linear_1_25578" x1="-0.819001" y1="30.0638" x2="0.559416" y2="30.0638" gradientUnits="userSpaceOnUse">
<stop stop-color="#E59A37"/>
<stop offset="0.1" stop-color="#E59A37"/>
<stop offset="0.47" stop-color="#EECD00"/>
<stop offset="0.52" stop-color="#EECD00"/>
<stop offset="0.58" stop-color="#EECD00"/>
<stop offset="0.88" stop-color="#E49D36"/>
<stop offset="1" stop-color="#E59A37"/>
</linearGradient>
<linearGradient id="paint1_linear_1_25578" x1="-0.821112" y1="30.0663" x2="0.553405" y2="30.0663" gradientUnits="userSpaceOnUse">
<stop stop-color="#4080B4"/>
<stop offset="0.58" stop-color="#7390C2"/>
<stop offset="1" stop-color="#E5E9EA"/>
</linearGradient>
<linearGradient id="paint2_linear_1_25578" x1="-0.821112" y1="30.0679" x2="0.553405" y2="30.0679" gradientUnits="userSpaceOnUse">
<stop stop-color="#4A9970"/>
<stop offset="0.58" stop-color="#89B894"/>
<stop offset="1" stop-color="#E1E9E5"/>
</linearGradient>
<clipPath id="clip0_1_25578">
<rect width="55" height="18" fill="white" transform="translate(4 5)"/>
</clipPath>
</defs>
</svg>
