<svg width="37" height="28" viewBox="0 0 37 28" fill="none" xmlns="http://www.w3.org/2000/svg">
<rect width="37" height="28" rx="4" fill="#004F89"/>
<g clip-path="url(#clip0_1_25563)">
<path fill-rule="evenodd" clip-rule="evenodd" d="M15.031 8.51074H17.4099L15.7647 10.1569H22.4758C25.5112 10.1569 25.4751 13.6861 25.4751 13.6861C25.4751 13.6861 25.438 17.1059 22.4026 17.1059H20.2749V12.5909H21.9021V15.4617C22.1258 15.4534 22.3456 15.3999 22.5482 15.3044C22.7507 15.2089 22.9318 15.0733 23.0804 14.9058C23.2291 14.7384 23.3423 14.5425 23.4133 14.3301C23.4842 14.1177 23.5113 13.8931 23.493 13.67C23.493 12.0971 21.6642 11.9505 21.6642 11.9505H11.5703L15.031 8.51074Z" fill="#ECA735"/>
<path d="M19.4528 5H17.8438V9.59019H19.4528V5Z" fill="#ECA735"/>
<path d="M21.859 6.78223H20.25V9.57973H21.859V6.78223Z" fill="#ECA735"/>
<path d="M19.4137 12.6016H17.8047V15.4H19.4137V12.6016Z" fill="#ECA735"/>
<path d="M7.29944 19.8585H6.32031L6.44591 19.1924H9.19489L9.06263 19.8585H8.0835L7.47642 22.9271H6.69236L7.29944 19.8585Z" fill="white"/>
<path d="M9.78887 19.1943H11.9983L11.8727 19.8528H10.4359L10.2751 20.6654H11.495L11.3694 21.3239H10.1495L9.95919 22.2687H11.4426L11.3161 22.9272H9.03906L9.78887 19.1943Z" fill="white"/>
<path d="M12.8084 19.1943H13.5925L12.974 22.2687H14.3889L14.2623 22.9272H12.0586L12.8084 19.1943Z" fill="white"/>
<path d="M15.6678 19.1943H17.8772L17.7516 19.8528H16.3148L16.154 20.6654H17.3739L17.2483 21.3239H16.0284L15.8381 22.2687H17.3177L17.1912 22.9272H14.918L15.6678 19.1943Z" fill="white"/>
<path d="M18.6883 19.1953H19.8672C20.5942 19.1953 21.1442 19.4694 21.1442 20.1859C21.1442 21.2278 20.3649 21.6341 19.4209 21.6341H18.9794L18.7282 22.9282H17.9375L18.6883 19.1953ZM19.5066 21.0099C20.0623 21.0099 20.3706 20.7691 20.3706 20.3C20.3706 19.968 20.1422 19.8195 19.7416 19.8195H19.3401L19.1117 21.0099H19.5066Z" fill="white"/>
<path d="M22.6659 21.989H21.5555L21.1159 22.9272H20.25L22.2197 19.1953H23.1588L23.5309 22.9272H22.7116L22.6659 21.989ZM22.6383 21.3991L22.6155 20.9071C22.5974 20.5398 22.5803 20.1906 22.5698 19.7957H22.547C22.3852 20.1763 22.2425 20.5341 22.0646 20.9071L21.8362 21.3991H22.6383Z" fill="white"/>
<path d="M25.9808 19.1266C26.1927 19.1194 26.4023 19.1713 26.5864 19.2765C26.7704 19.3817 26.9215 19.5361 27.0228 19.7223L26.4899 20.1343C26.4368 20.035 26.3576 19.9522 26.2608 19.8946C26.1641 19.8371 26.0534 19.8071 25.9409 19.8079C25.2481 19.8079 24.7438 20.552 24.7438 21.3827C24.7438 21.9536 24.9674 22.3266 25.5517 22.3266C25.695 22.3261 25.8348 22.2827 25.9532 22.202L26.1131 21.4693H25.5051L25.6249 20.828H26.9247L26.5812 22.6083C26.2452 22.8632 25.8345 23 25.4128 22.9975C25.2079 23.0107 25.0027 22.9787 24.8117 22.9036C24.6206 22.8285 24.4485 22.7122 24.3075 22.563C24.1665 22.4139 24.0601 22.2355 23.9959 22.0405C23.9317 21.8455 23.9112 21.6388 23.936 21.4351C23.9146 21.1483 23.9508 20.8602 24.0427 20.5878C24.1345 20.3153 24.2801 20.0641 24.4707 19.8489C24.6614 19.6336 24.8932 19.4588 25.1526 19.3348C25.412 19.2107 25.6936 19.14 25.9808 19.1266Z" fill="white"/>
<path d="M27.4306 21.4166C27.3815 20.8623 27.5528 20.3111 27.9075 19.8823C28.2621 19.4536 28.7715 19.1819 29.3251 19.1263C29.526 19.1222 29.7253 19.1619 29.9094 19.2424C30.0934 19.323 30.2578 19.4425 30.3912 19.5928C30.5245 19.7431 30.6237 19.9205 30.6818 20.1128C30.7399 20.3051 30.7555 20.5078 30.7277 20.7067C30.7778 21.2617 30.6064 21.8139 30.251 22.2429C29.8955 22.672 29.3849 22.9431 28.8303 22.9971C28.6294 23.0014 28.4299 22.962 28.2456 22.8816C28.0614 22.8011 27.8969 22.6816 27.7635 22.5312C27.6301 22.3809 27.5309 22.2033 27.473 22.0109C27.415 21.8184 27.3996 21.6156 27.4278 21.4166M28.229 21.3652C28.229 21.9609 28.4583 22.3167 28.8703 22.3167C29.4022 22.3167 29.9236 21.6183 29.9236 20.7534C29.9236 20.1577 29.7 19.8018 29.288 19.8018C28.7561 19.8018 28.229 20.4946 28.229 21.3595" fill="white"/>
</g>
<defs>
<clipPath id="clip0_1_25563">
<rect width="29" height="18" fill="white" transform="translate(4 5)"/>
</clipPath>
</defs>
</svg>
