<svg width="40" height="28" viewBox="0 0 40 28" fill="none" xmlns="http://www.w3.org/2000/svg">
<rect width="40" height="28" rx="4" fill="white"/>
<path d="M15.2734 18.6698L16.8952 9.16504H19.4861L17.8643 18.6698H15.2734Z" fill="#00528D"/>
<path d="M27.2601 9.39952C26.5157 9.13005 25.7295 8.99483 24.9378 9.00015C22.3784 9.00015 20.5742 10.2895 20.559 12.1424C20.5448 13.5078 21.8463 14.271 22.8295 14.7241C23.8431 15.1904 24.1766 15.4874 24.1726 15.904C24.1655 16.5405 23.3617 16.8315 22.6217 16.8315C21.7794 16.8554 20.943 16.683 20.1789 16.3277L19.8444 16.1766L19.4805 18.3053C20.4046 18.646 21.3824 18.8177 22.3673 18.8121C25.0899 18.8121 26.8587 17.5369 26.8779 15.5685C26.8881 14.4869 26.1978 13.6639 24.7037 12.9857C23.7975 12.5458 23.2431 12.2529 23.2491 11.8079C23.2491 11.4126 23.7185 10.9899 24.7321 10.9899C25.3984 10.9739 26.0606 11.0975 26.6762 11.3528L26.9094 11.4623L27.2601 9.39952Z" fill="#00528D"/>
<path d="M33.9024 9.17459H31.9005C31.6191 9.13843 31.3337 9.19599 31.0883 9.33836C30.843 9.48073 30.6514 9.69997 30.5432 9.96218L26.6914 18.6733H29.412C29.412 18.6733 29.857 17.5026 29.9573 17.2451H33.2759C33.353 17.5776 33.5912 18.6693 33.5912 18.6693H35.9996L33.9024 9.17459ZM30.7074 15.301C30.9213 14.7536 31.7393 12.6442 31.7393 12.6442C31.7241 12.6696 31.9521 12.0938 32.0829 11.732L32.2583 12.551C32.2583 12.551 32.7539 14.8205 32.8583 15.2959L30.7074 15.301Z" fill="#00528D"/>
<path d="M13.0981 9.17188L10.564 15.654L10.2934 14.3363C9.636 12.6058 8.35543 11.1835 6.70312 10.3487L9.02636 18.6615H11.7632L15.842 9.17492L13.0981 9.17188Z" fill="#00528D"/>
<path d="M8.21062 9.16656H4.03244L4 9.36422C5.37494 9.61729 6.66715 10.2027 7.76409 11.0694C8.86102 11.9362 9.72942 13.058 10.2936 14.3371L9.38136 9.96935C9.315 9.71652 9.15964 9.49613 8.94382 9.34865C8.72801 9.20117 8.46622 9.13652 8.20656 9.16656" fill="#E79D00"/>
</svg>
